<svg xmlns="http://www.w3.org/2000/svg" xmlns:xlink="http://www.w3.org/1999/xlink" width="820" zoomAndPan="magnify" viewBox="0 0 615 634.499981" height="846" preserveAspectRatio="xMidYMid meet" version="1.0"><path fill="#fd8087" d="M 513.78125 143.878906 L 513.734375 143.925781 C 513.457031 144.214844 513.175781 144.496094 512.878906 144.78125 L 395.25 262.246094 L 382.09375 275.386719 C 378.71875 278.757812 373.253906 278.757812 369.882812 275.386719 L 239.089844 144.78125 C 238.808594 144.496094 238.511719 144.214844 238.242188 143.925781 L 238.191406 143.878906 C 222.585938 128.03125 213.214844 106.011719 214.078125 81.820312 C 215.648438 37.75 251.679688 2.042969 295.746094 0.859375 C 303.140625 0.660156 310.328125 1.410156 317.203125 3.007812 C 338.761719 8.023438 357.125 21.367188 368.765625 39.460938 C 372.132812 44.695312 379.84375 44.703125 383.210938 39.46875 C 398.546875 15.613281 425.585938 0.0234375 456.226562 0.859375 C 500.289062 2.042969 536.324219 37.75 537.894531 81.820312 C 538.765625 106.011719 529.386719 128.03125 513.78125 143.878906 Z M 513.78125 143.878906 " fill-opacity="1" fill-rule="nonzero"/><path fill="#fe646f" d="M 395.25 262.246094 L 382.09375 275.386719 C 378.71875 278.757812 373.253906 278.757812 369.882812 275.386719 C 369.882812 275.386719 238.511719 144.214844 238.242188 143.925781 L 238.191406 143.878906 C 222.585938 128.03125 213.214844 106.011719 214.078125 81.820312 C 215.648438 37.75 251.679688 2.042969 295.746094 0.859375 C 303.140625 0.660156 310.328125 1.410156 317.203125 3.007812 C 317.242188 3.019531 317.285156 3.03125 317.324219 3.046875 C 280.191406 11.761719 252.5625 45.109375 252.5625 84.894531 C 252.5625 107.878906 261.796875 128.699219 276.730469 143.878906 L 276.785156 143.925781 C 277.066406 144.214844 395.25 262.246094 395.25 262.246094 Z M 395.25 262.246094 " fill-opacity="1" fill-rule="nonzero"/><path fill="#f2fbff" d="M 429.140625 120.582031 L 406.515625 120.582031 C 401.738281 120.582031 397.875 116.710938 397.875 111.9375 L 397.875 89.292969 C 397.875 84.519531 394.003906 80.648438 389.230469 80.648438 L 366.597656 80.648438 C 361.828125 80.648438 357.957031 84.519531 357.957031 89.292969 L 357.957031 111.9375 C 357.957031 116.710938 354.089844 120.582031 349.3125 120.582031 L 326.6875 120.582031 C 321.914062 120.582031 318.042969 124.449219 318.042969 129.226562 L 318.042969 151.863281 C 318.042969 156.636719 321.914062 160.507812 326.6875 160.507812 L 349.3125 160.507812 C 354.089844 160.507812 357.957031 164.382812 357.957031 169.152344 L 357.957031 191.789062 C 357.957031 196.5625 361.828125 200.433594 366.597656 200.433594 L 389.230469 200.433594 C 394.003906 200.433594 397.875 196.5625 397.875 191.789062 L 397.875 169.152344 C 397.875 164.382812 401.738281 160.507812 406.515625 160.507812 L 429.140625 160.507812 C 433.914062 160.507812 437.785156 156.636719 437.785156 151.863281 L 437.785156 129.226562 C 437.785156 124.449219 433.914062 120.582031 429.140625 120.582031 Z M 429.140625 120.582031 " fill-opacity="1" fill-rule="nonzero"/><path fill="#fed2a4" d="M 582.136719 348.765625 L 419.710938 475.773438 C 408.464844 484.582031 394.601562 489.347656 380.339844 489.347656 L 218.992188 489.347656 L 199.5 488.671875 L 146.410156 435.566406 L 143.304688 413.628906 C 143.304688 413.628906 143.316406 413.605469 143.324219 413.554688 C 144.648438 410.851562 183.992188 330.695312 260.007812 330.695312 C 266.464844 330.695312 272.894531 331.339844 279.277344 332.457031 C 298.078125 335.746094 316.425781 343.179688 333.773438 350.578125 L 394.375 350.578125 C 408.238281 350.578125 418.648438 361.746094 419.855469 374.203125 C 420.179688 377.355469 419.894531 380.605469 418.917969 383.765625 L 467.621094 355.640625 L 556.488281 304.300781 C 569.15625 297 581.191406 300.347656 588.363281 308.238281 C 597.78125 318.574219 598.867188 336.695312 582.136719 348.765625 Z M 582.136719 348.765625 " fill-opacity="1" fill-rule="nonzero"/><path fill="#ffbd86" d="M 203.71875 435.515625 L 257.539062 489.347656 L 218.992188 489.347656 L 199.5 488.671875 L 146.410156 435.566406 L 143.304688 413.628906 C 143.304688 413.628906 143.316406 413.605469 143.324219 413.554688 C 144.648438 410.851562 183.992188 330.695312 260.007812 330.695312 C 266.464844 330.695312 272.894531 331.339844 279.277344 332.457031 C 242.859375 339.21875 216.535156 364.164062 200.5 384.632812 C 188.527344 399.910156 189.992188 421.78125 203.71875 435.515625 Z M 203.71875 435.515625 " fill-opacity="1" fill-rule="nonzero"/><path fill="#ffbd86" d="M 588.363281 308.238281 L 425.425781 402.21875 C 413.914062 409.96875 407.992188 411.332031 394.375 411.550781 L 278.019531 411.550781 C 272.695312 411.550781 268.386719 407.230469 268.386719 401.910156 C 268.386719 396.582031 272.695312 392.273438 278.019531 392.273438 L 394.375 392.273438 C 401.472656 392.273438 407.632812 387.71875 409.699219 380.945312 C 411.054688 376.488281 415.351562 374.378906 419.855469 374.203125 C 420.179688 377.355469 419.894531 380.605469 418.917969 383.765625 L 467.621094 355.640625 L 556.488281 304.300781 C 569.15625 297 581.191406 300.347656 588.363281 308.238281 Z M 588.363281 308.238281 " fill-opacity="1" fill-rule="nonzero"/><path fill="#f2fbff" d="M 226.90625 552.027344 L 248.164062 530.761719 C 251.539062 527.382812 251.539062 521.917969 248.164062 518.539062 L 121.449219 391.773438 C 118.070312 388.394531 112.601562 388.394531 109.222656 391.773438 L 87.96875 413.03125 L 85.921875 433.09375 L 205.058594 552.277344 Z M 226.90625 552.027344 " fill-opacity="1" fill-rule="nonzero"/><path fill="#dff6fd" d="M 239.757812 539.175781 L 226.90625 552.027344 L 205.058594 552.277344 L 85.914062 433.09375 L 87.972656 413.03125 L 109.230469 391.765625 C 112.605469 388.390625 118.070312 388.390625 121.449219 391.765625 L 128.1875 398.507812 L 127.300781 399.402344 C 119.769531 406.933594 119.769531 419.136719 127.300781 426.667969 Z M 239.757812 539.175781 " fill-opacity="1" fill-rule="nonzero"/><path fill="#99e6fc" d="M 19.191406 447.09375 L 64.453125 401.8125 C 67.847656 398.417969 73.351562 398.417969 76.746094 401.8125 L 247.796875 573.054688 C 251.1875 576.453125 251.1875 581.953125 247.789062 585.347656 L 202.53125 630.625 C 199.136719 634.023438 193.632812 634.023438 190.234375 630.625 L 19.183594 459.386719 C 15.796875 455.988281 15.796875 450.488281 19.191406 447.09375 Z M 19.191406 447.09375 " fill-opacity="1" fill-rule="nonzero"/><path fill="#62dbfb" d="M 215.667969 617.492188 L 202.523438 630.625 C 199.128906 634.023438 193.625 634.023438 190.234375 630.625 L 19.191406 459.390625 C 15.796875 455.996094 15.796875 450.488281 19.191406 447.097656 L 64.453125 401.808594 C 67.847656 398.410156 73.351562 398.410156 76.746094 401.808594 L 89.871094 414.949219 L 78.84375 425.980469 C 63.789062 441.039062 63.789062 465.449219 78.828125 480.507812 Z M 215.667969 617.492188 " fill-opacity="1" fill-rule="nonzero"/></svg>