<svg xmlns="http://www.w3.org/2000/svg" xmlns:xlink="http://www.w3.org/1999/xlink" width="120" zoomAndPan="magnify" viewBox="0 0 90 89.999999" height="120" preserveAspectRatio="xMidYMid meet" version="1.0"><defs><clipPath id="76f85a2b27"><path d="M 2.289062 0 L 84 0 L 84 83 L 2.289062 83 Z M 2.289062 0 " clip-rule="nonzero"/></clipPath><clipPath id="4175d04d4c"><path d="M 8.222656 0.0507812 L 87.789062 0.0507812 L 87.789062 89.734375 L 8.222656 89.734375 Z M 8.222656 0.0507812 " clip-rule="nonzero"/></clipPath><clipPath id="2cd7f8d1bd"><path d="M 5.453125 2.222656 L 82.371094 2.222656 L 82.371094 89.960938 L 5.453125 89.960938 Z M 5.453125 2.222656 " clip-rule="nonzero"/></clipPath></defs><g clip-path="url(#76f85a2b27)"><path fill="#ef2c5f" d="M 69.683594 11.726562 L 69.871094 11.726562 L 69.871094 11.859375 C 69.808594 11.816406 69.746094 11.769531 69.683594 11.726562 Z M 71.0625 12.753906 L 71.429688 12.753906 L 71.429688 11.726562 L 72.457031 11.726562 L 72.457031 10.171875 L 71.429688 10.171875 L 71.429688 9.144531 L 69.871094 9.144531 L 69.871094 10.171875 L 68.84375 10.171875 L 68.84375 11.136719 C 59.289062 4.589844 46.601562 0.902344 35.539062 0.902344 C 14.476562 0.902344 2.289062 23.832031 2.289062 44.875 C 2.289062 65.917969 31.535156 82.976562 52.597656 82.976562 C 73.660156 82.976562 83.558594 56.347656 83.558594 35.304688 C 83.558594 26.191406 78.503906 18.523438 71.0625 12.753906 " fill-opacity="1" fill-rule="nonzero"/></g><path fill="#d1edf1" d="M 51.472656 20.3125 C 51.535156 20.671875 51.660156 21.03125 51.894531 21.320312 C 51.90625 21.339844 51.929688 21.34375 51.949219 21.332031 C 51.972656 21.316406 51.976562 21.289062 51.964844 21.269531 C 51.785156 20.96875 51.6875 20.628906 51.644531 20.285156 C 51.628906 20.113281 51.609375 19.933594 51.613281 19.765625 C 51.613281 19.597656 51.660156 19.429688 51.703125 19.261719 C 51.792969 18.925781 51.933594 18.601562 52.082031 18.277344 C 52.230469 17.957031 52.390625 17.636719 52.558594 17.324219 C 52.566406 17.304688 52.5625 17.285156 52.546875 17.273438 C 52.53125 17.261719 52.507812 17.265625 52.496094 17.28125 C 52.285156 17.574219 52.101562 17.882812 51.929688 18.203125 C 51.765625 18.523438 51.621094 18.859375 51.511719 19.210938 C 51.46875 19.386719 51.421875 19.570312 51.425781 19.761719 C 51.425781 19.949219 51.441406 20.128906 51.472656 20.3125 Z M 52.902344 21.855469 C 52.78125 21.839844 52.664062 21.800781 52.542969 21.773438 L 52.539062 21.773438 C 52.523438 21.769531 52.507812 21.773438 52.5 21.785156 C 52.488281 21.804688 52.492188 21.828125 52.507812 21.839844 C 52.617188 21.917969 52.734375 21.980469 52.863281 22.015625 C 52.988281 22.0625 53.125 22.078125 53.257812 22.078125 C 53.390625 22.082031 53.527344 22.0625 53.65625 22.023438 C 53.78125 21.984375 53.902344 21.929688 54.011719 21.84375 C 54.027344 21.832031 54.03125 21.816406 54.027344 21.796875 C 54.019531 21.773438 53.996094 21.757812 53.972656 21.765625 L 53.964844 21.769531 C 53.851562 21.800781 53.730469 21.832031 53.613281 21.851562 C 53.496094 21.871094 53.375 21.882812 53.257812 21.882812 C 53.140625 21.882812 53.019531 21.875 52.902344 21.855469 Z M 51.054688 19.652344 C 51.054688 18.054688 53.34375 15.492188 53.34375 15.492188 C 53.34375 15.492188 55.632812 18.054688 55.632812 19.652344 C 55.632812 21.253906 54.609375 22.550781 53.34375 22.550781 C 52.078125 22.550781 51.054688 21.253906 51.054688 19.652344 Z M 59.304688 13.921875 C 59.457031 13.660156 59.699219 13.4375 59.976562 13.300781 L 59.980469 13.296875 C 60 13.289062 60.011719 13.261719 60.003906 13.242188 C 59.992188 13.21875 59.96875 13.207031 59.945312 13.214844 C 59.628906 13.332031 59.351562 13.550781 59.167969 13.835938 C 58.976562 14.125 58.894531 14.472656 58.921875 14.820312 C 58.964844 15.171875 59.136719 15.464844 59.308594 15.746094 C 59.492188 16.019531 59.695312 16.273438 59.933594 16.503906 C 59.945312 16.515625 59.964844 16.515625 59.980469 16.507812 C 60 16.496094 60.003906 16.46875 59.988281 16.453125 C 59.800781 16.191406 59.617188 15.929688 59.460938 15.652344 C 59.300781 15.382812 59.160156 15.089844 59.113281 14.796875 C 59.085938 14.503906 59.152344 14.183594 59.304688 13.921875 Z M 60.289062 16.78125 C 60.324219 16.855469 60.371094 16.921875 60.417969 16.984375 C 60.464844 17.050781 60.519531 17.109375 60.570312 17.167969 C 60.625 17.226562 60.679688 17.28125 60.742188 17.332031 C 60.804688 17.386719 60.863281 17.433594 60.9375 17.476562 C 60.949219 17.484375 60.96875 17.484375 60.980469 17.476562 C 61.003906 17.464844 61.011719 17.4375 61 17.414062 C 60.964844 17.339844 60.917969 17.277344 60.871094 17.210938 C 60.824219 17.148438 60.769531 17.089844 60.714844 17.03125 C 60.660156 16.976562 60.601562 16.917969 60.539062 16.871094 C 60.480469 16.820312 60.417969 16.769531 60.34375 16.726562 C 60.332031 16.722656 60.320312 16.722656 60.308594 16.726562 C 60.289062 16.738281 60.28125 16.761719 60.289062 16.78125 Z M 58.671875 13.714844 C 60.402344 10.832031 61.949219 13.714844 61.949219 13.714844 C 61.949219 13.714844 63.496094 10.832031 65.222656 13.714844 C 66.292969 15.503906 63.539062 17.914062 62.40625 18.796875 C 62.132812 19.011719 61.765625 19.011719 61.492188 18.796875 C 60.359375 17.914062 57.601562 15.503906 58.671875 13.714844 Z M 69.042969 11.527344 L 70.070312 11.527344 L 70.070312 12.554688 L 71.230469 12.554688 L 71.230469 11.527344 L 72.261719 11.527344 L 72.261719 10.367188 L 71.230469 10.367188 L 71.230469 9.339844 L 70.070312 9.339844 L 70.070312 10.367188 L 69.042969 10.367188 Z M 67.367188 10.949219 C 67.367188 9.148438 68.828125 7.6875 70.632812 7.6875 C 72.433594 7.6875 73.894531 9.148438 73.894531 10.949219 C 73.894531 12.75 72.433594 14.210938 70.632812 14.210938 C 68.828125 14.210938 67.367188 12.75 67.367188 10.949219 Z M 75.761719 54.765625 C 75.683594 54.925781 75.753906 55.121094 75.914062 55.199219 C 76.078125 55.277344 76.273438 55.207031 76.347656 55.042969 L 77.164062 53.335938 L 76.578125 53.054688 Z M 64.691406 43.835938 L 74.246094 43.835938 L 74.246094 43.242188 L 64.691406 43.242188 Z M 63.179688 42.96875 C 62.863281 42.96875 62.605469 43.222656 62.605469 43.539062 C 62.605469 43.855469 62.863281 44.113281 63.179688 44.113281 C 63.496094 44.113281 63.753906 43.855469 63.753906 43.539062 C 63.753906 43.222656 63.496094 42.96875 63.179688 42.96875 Z M 76.339844 43.546875 C 76.339844 43.230469 76.082031 42.976562 75.765625 42.976562 C 75.449219 42.976562 75.191406 43.230469 75.191406 43.546875 C 75.191406 43.863281 75.449219 44.121094 75.765625 44.121094 C 76.082031 44.121094 76.339844 43.863281 76.339844 43.546875 Z M 62.589844 30.957031 C 62.589844 31.273438 62.847656 31.53125 63.164062 31.53125 C 63.480469 31.53125 63.734375 31.273438 63.734375 30.957031 C 63.734375 30.640625 63.480469 30.382812 63.164062 30.382812 C 62.847656 30.382812 62.589844 30.640625 62.589844 30.957031 Z M 75.773438 31.53125 C 76.089844 31.53125 76.347656 31.273438 76.347656 30.957031 C 76.347656 30.640625 76.089844 30.382812 75.773438 30.382812 C 75.457031 30.382812 75.199219 30.640625 75.199219 30.957031 C 75.199219 31.273438 75.457031 31.53125 75.773438 31.53125 Z M 74.230469 34.082031 L 73.628906 31.253906 L 72.886719 31.253906 L 72.628906 32.484375 C 73.261719 32.90625 73.808594 33.449219 74.230469 34.082031 Z M 69.46875 31.535156 C 69.589844 31.535156 69.707031 31.539062 69.828125 31.546875 L 69.761719 31.253906 L 66.039062 31.253906 L 65.597656 33.042969 C 66.617188 32.105469 67.976562 31.535156 69.46875 31.535156 Z M 66.1875 30.660156 L 69.625 30.660156 L 68.195312 24.4375 C 68.164062 24.304688 68.050781 24.253906 67.964844 24.253906 C 67.882812 24.257812 67.765625 24.300781 67.734375 24.433594 Z M 69.964844 31.253906 L 70.035156 31.5625 C 70.914062 31.648438 71.734375 31.933594 72.449219 32.371094 L 72.6875 31.253906 Z M 73.011719 30.660156 L 73.503906 30.660156 L 73.492188 30.59375 C 73.460938 30.457031 73.347656 30.40625 73.257812 30.40625 C 73.167969 30.40625 73.054688 30.457031 73.027344 30.59375 Z M 83.410156 32.652344 L 81.210938 26.433594 C 81.167969 26.3125 81.0625 26.273438 80.980469 26.277344 C 80.894531 26.277344 80.792969 26.324219 80.761719 26.449219 L 76.625 41.382812 C 76.570312 41.578125 76.394531 41.710938 76.191406 41.699219 C 76.148438 41.699219 76.109375 41.691406 76.070312 41.675781 L 76.070312 42.03125 L 75.476562 42.03125 L 75.476562 39.933594 L 75.113281 38.226562 C 74.652344 40.921875 72.296875 42.980469 69.46875 42.980469 C 66.984375 42.980469 64.863281 41.394531 64.074219 39.179688 L 63.734375 40.546875 C 63.699219 40.691406 63.601562 40.792969 63.476562 40.84375 L 63.476562 42.03125 L 62.882812 42.03125 L 62.882812 40.515625 L 61.386719 32.207031 C 61.367188 32.085938 61.273438 32.03125 61.191406 32.015625 C 61.113281 32.003906 61.003906 32.03125 60.945312 32.136719 L 57.171875 39.136719 C 57.089844 39.292969 56.929688 39.382812 56.753906 39.363281 C 56.578125 39.347656 56.433594 39.238281 56.378906 39.070312 L 53.179688 29.445312 C 53.136719 29.320312 53.027344 29.28125 52.941406 29.285156 C 52.851562 29.289062 52.75 29.34375 52.722656 29.476562 L 50.738281 39.820312 C 50.699219 40.019531 50.539062 40.160156 50.335938 40.171875 C 50.132812 40.179688 49.957031 40.058594 49.894531 39.863281 L 45.480469 25.378906 C 45.441406 25.257812 45.339844 25.214844 45.257812 25.210938 C 45.175781 25.214844 45.070312 25.25 45.027344 25.371094 L 39.757812 40.082031 C 39.6875 40.273438 39.507812 40.386719 39.304688 40.367188 C 39.101562 40.34375 38.945312 40.195312 38.917969 39.996094 L 35.519531 16.183594 C 35.496094 16.03125 35.378906 15.980469 35.28125 15.980469 C 35.183594 15.980469 35.066406 16.039062 35.050781 16.191406 L 32.203125 43.554688 C 32.179688 43.777344 32.011719 43.9375 31.789062 43.945312 C 31.566406 43.949219 31.382812 43.808594 31.34375 43.589844 L 28.507812 28.027344 C 28.480469 27.882812 28.359375 27.835938 28.269531 27.832031 C 28.179688 27.832031 28.0625 27.886719 28.039062 28.035156 L 26.28125 39.515625 C 26.246094 39.757812 26.050781 39.875 25.875 39.886719 C 25.699219 39.890625 25.492188 39.796875 25.433594 39.558594 L 20.859375 21.632812 C 20.820312 21.488281 20.703125 21.449219 20.609375 21.457031 C 20.519531 21.464844 20.40625 21.523438 20.394531 21.667969 L 18.300781 44.832031 C 18.277344 45.097656 18.070312 45.222656 17.886719 45.226562 C 17.878906 45.226562 17.875 45.230469 17.871094 45.230469 C 17.6875 45.230469 17.480469 45.113281 17.441406 44.863281 L 14.640625 27.152344 C 14.617188 27.007812 14.503906 26.953125 14.414062 26.953125 C 14.324219 26.949219 14.207031 26.996094 14.175781 27.136719 L 11.015625 41.285156 C 10.960938 41.527344 10.757812 41.632812 10.582031 41.625 C 10.402344 41.621094 10.207031 41.507812 10.164062 41.265625 L 8.242188 29.929688 C 8.21875 29.789062 8.105469 29.734375 8.015625 29.734375 C 7.925781 29.730469 7.808594 29.78125 7.777344 29.921875 L 6.285156 36.847656 C 6.246094 37.039062 6.09375 37.171875 5.898438 37.1875 C 5.703125 37.203125 5.53125 37.097656 5.457031 36.917969 L 3.675781 32.464844 C 3.699219 32.351562 3.722656 32.234375 3.75 32.121094 L 5.640625 36.84375 C 5.691406 36.964844 5.796875 37 5.882812 36.992188 C 5.964844 36.984375 6.066406 36.933594 6.09375 36.804688 L 7.585938 29.878906 C 7.636719 29.636719 7.839844 29.535156 8.019531 29.535156 C 8.199219 29.539062 8.398438 29.652344 8.4375 29.898438 L 10.359375 41.230469 C 10.382812 41.375 10.496094 41.425781 10.585938 41.429688 C 10.675781 41.429688 10.792969 41.382812 10.824219 41.242188 L 13.984375 27.09375 C 14.035156 26.851562 14.246094 26.75 14.421875 26.753906 C 14.601562 26.757812 14.796875 26.875 14.835938 27.121094 L 17.636719 44.832031 C 17.660156 44.984375 17.78125 45.035156 17.878906 45.03125 C 17.972656 45.027344 18.09375 44.96875 18.105469 44.816406 L 20.195312 21.652344 C 20.21875 21.402344 20.414062 21.273438 20.59375 21.257812 C 20.773438 21.242188 20.988281 21.339844 21.050781 21.585938 L 25.625 39.511719 C 25.660156 39.648438 25.777344 39.691406 25.863281 39.6875 C 25.953125 39.683594 26.066406 39.628906 26.085938 39.488281 L 27.84375 28.003906 C 27.882812 27.753906 28.085938 27.636719 28.265625 27.636719 C 28.449219 27.636719 28.65625 27.742188 28.699219 27.992188 L 31.539062 43.554688 C 31.566406 43.703125 31.6875 43.75 31.78125 43.746094 C 31.875 43.742188 31.992188 43.6875 32.007812 43.535156 L 34.851562 16.171875 C 34.878906 15.910156 35.089844 15.785156 35.277344 15.78125 C 35.460938 15.777344 35.675781 15.894531 35.714844 16.15625 L 39.113281 39.96875 C 39.132812 40.101562 39.234375 40.160156 39.324219 40.167969 C 39.414062 40.179688 39.523438 40.144531 39.570312 40.015625 L 44.84375 25.304688 C 44.90625 25.125 45.070312 25.011719 45.261719 25.015625 C 45.453125 25.019531 45.613281 25.140625 45.667969 25.324219 L 50.085938 39.808594 C 50.125 39.9375 50.234375 39.976562 50.324219 39.972656 C 50.414062 39.96875 50.519531 39.917969 50.542969 39.78125 L 52.527344 29.4375 C 52.566406 29.242188 52.726562 29.101562 52.925781 29.085938 C 53.128906 29.074219 53.304688 29.195312 53.367188 29.382812 L 56.566406 39.007812 C 56.597656 39.097656 56.671875 39.160156 56.769531 39.167969 C 56.867188 39.175781 56.953125 39.132812 57 39.042969 L 60.773438 32.042969 C 60.859375 31.878906 61.039062 31.792969 61.222656 31.820312 C 61.410156 31.851562 61.550781 31.988281 61.582031 32.171875 L 62.882812 39.398438 L 62.882812 32.484375 L 63.476562 32.484375 L 63.476562 40.609375 C 63.503906 40.582031 63.527344 40.550781 63.542969 40.5 L 63.957031 38.820312 C 63.816406 38.324219 63.738281 37.800781 63.738281 37.257812 C 63.738281 35.726562 64.34375 34.335938 65.328125 33.308594 L 65.835938 31.253906 L 64.691406 31.253906 L 64.691406 30.660156 L 65.984375 30.660156 L 67.542969 24.386719 C 67.589844 24.1875 67.769531 24.054688 67.96875 24.054688 C 68.171875 24.058594 68.339844 24.191406 68.386719 24.394531 L 69.828125 30.660156 L 72.8125 30.660156 L 72.832031 30.554688 C 72.882812 30.316406 73.082031 30.210938 73.257812 30.207031 C 73.433594 30.207031 73.632812 30.316406 73.683594 30.550781 L 73.707031 30.660156 L 74.246094 30.660156 L 74.246094 31.253906 L 73.832031 31.253906 L 74.546875 34.613281 C 74.960938 35.40625 75.199219 36.304688 75.199219 37.257812 C 75.199219 37.375 75.191406 37.496094 75.1875 37.613281 L 75.476562 38.984375 L 75.476562 32.484375 L 76.070312 32.484375 L 76.070312 41.460938 C 76.109375 41.488281 76.15625 41.5 76.199219 41.503906 C 76.289062 41.507812 76.398438 41.460938 76.433594 41.328125 L 80.570312 26.394531 C 80.621094 26.210938 80.78125 26.085938 80.972656 26.078125 C 81.167969 26.070312 81.332031 26.1875 81.398438 26.367188 L 83.289062 31.714844 C 83.332031 32.023438 83.375 32.335938 83.410156 32.652344 Z M 86.886719 34.84375 L 85.125 38.53125 C 84.9375 38.917969 84.542969 39.167969 84.113281 39.167969 C 83.945312 39.167969 83.78125 39.132812 83.628906 39.058594 C 83.359375 38.929688 83.15625 38.703125 83.058594 38.421875 C 82.957031 38.140625 82.972656 37.835938 83.101562 37.566406 L 84.867188 33.878906 C 85.050781 33.492188 85.449219 33.242188 85.878906 33.242188 C 86.046875 33.242188 86.207031 33.277344 86.359375 33.351562 C 86.917969 33.617188 87.152344 34.285156 86.886719 34.84375 " fill-opacity="1" fill-rule="nonzero"/><g clip-path="url(#4175d04d4c)"><path fill="#5ec9cc" d="M 52.042969 5.367188 C 51.394531 5.464844 49.566406 6.03125 49.566406 6.03125 C 49.566406 6.03125 51.386719 4.886719 51.867188 4.34375 C 52.351562 3.800781 54.316406 3 54.195312 2.476562 C 54.078125 1.949219 52.949219 2.199219 51.992188 2.800781 C 51.03125 3.398438 48.71875 3.992188 48.71875 3.992188 C 48.71875 3.992188 48.699219 3.65625 49.84375 2.96875 C 50.988281 2.28125 52.816406 1.480469 52.351562 0.960938 C 51.707031 0.242188 47.183594 2.960938 47.183594 2.960938 C 47.183594 2.960938 49.363281 0.0546875 48.363281 0.0507812 C 47.359375 0.0429688 46.90625 1.488281 46.0625 2.125 C 45.222656 2.765625 43.492188 5 43.492188 5 L 36.636719 7.332031 L 39.5 12.957031 C 39.5 12.957031 46.253906 8.496094 46.730469 8.621094 C 47.210938 8.746094 49.367188 9.359375 49.980469 9.199219 C 50.59375 9.035156 52.042969 8.9375 52.28125 8.726562 C 52.519531 8.511719 51.910156 7.992188 51.234375 7.898438 C 50.289062 7.761719 49.140625 7.859375 49.246094 7.621094 C 49.351562 7.382812 51.433594 6.664062 52.238281 6.324219 C 53.039062 5.984375 54.492188 5.410156 54.304688 5.058594 C 54.011719 4.503906 52.6875 5.269531 52.042969 5.367188 Z M 86.273438 33.527344 C 85.8125 33.308594 85.265625 33.503906 85.042969 33.964844 L 83.28125 37.652344 C 83.0625 38.113281 83.253906 38.660156 83.714844 38.882812 C 84.175781 39.101562 84.726562 38.90625 84.945312 38.445312 L 86.707031 34.757812 C 86.929688 34.300781 86.734375 33.75 86.273438 33.527344 Z M 87.464844 35.691406 L 82.226562 43.734375 L 80.875 43.089844 L 83.84375 33.964844 C 84.222656 32.800781 85.535156 32.238281 86.640625 32.765625 C 87.742188 33.289062 88.128906 34.667969 87.464844 35.691406 Z M 66.695312 73.730469 C 67.757812 73.730469 68.621094 72.734375 68.621094 71.503906 C 68.621094 70.511719 68.0625 68.714844 67.289062 68.054688 L 67.289062 66.40625 C 67.289062 66.078125 67.023438 65.8125 66.695312 65.8125 C 66.367188 65.8125 66.101562 66.078125 66.101562 66.40625 L 66.101562 68.054688 C 65.332031 68.714844 64.773438 70.511719 64.773438 71.503906 C 64.773438 72.734375 65.632812 73.730469 66.695312 73.730469 Z M 57.484375 89.664062 L 76.660156 89.664062 L 76.660156 76.246094 L 57.484375 76.246094 Z M 13.433594 41.703125 C 14.824219 40.445312 16.023438 39.355469 15.632812 38.152344 C 15.363281 37.320312 14.320312 36.230469 12.441406 34.828125 C 12.066406 34.546875 11.875 34.117188 11.914062 33.652344 C 11.953125 33.1875 12.222656 32.78125 12.636719 32.566406 C 13.480469 32.128906 14.003906 31.269531 14.003906 30.320312 L 14.003906 23.683594 C 14.472656 23.621094 14.941406 23.519531 15.402344 23.371094 C 16.164062 23.125 16.851562 22.730469 17.445312 22.1875 C 17.6875 21.96875 17.703125 21.59375 17.480469 21.351562 C 17.261719 21.109375 16.886719 21.09375 16.644531 21.3125 C 16.179688 21.738281 15.636719 22.050781 15.039062 22.242188 C 13.695312 22.675781 12.277344 22.675781 10.933594 22.242188 C 10.355469 22.058594 9.835938 21.761719 9.378906 21.359375 C 9.136719 21.144531 8.761719 21.167969 8.542969 21.414062 C 8.328125 21.65625 8.347656 22.03125 8.59375 22.25 C 9.171875 22.757812 9.835938 23.136719 10.570312 23.371094 C 11.304688 23.609375 12.058594 23.730469 12.816406 23.746094 L 12.816406 30.320312 C 12.816406 30.824219 12.539062 31.28125 12.089844 31.515625 C 11.3125 31.917969 10.804688 32.679688 10.730469 33.554688 C 10.660156 34.421875 11.03125 35.253906 11.730469 35.777344 C 13.976562 37.457031 14.417969 38.253906 14.503906 38.519531 C 14.660156 38.992188 13.535156 40.011719 12.636719 40.828125 C 11.609375 41.757812 10.480469 42.78125 9.8125 43.972656 C 9.15625 44.027344 8.636719 44.578125 8.636719 45.25 C 8.636719 45.957031 9.214844 46.53125 9.921875 46.53125 C 10.632812 46.53125 11.207031 45.957031 11.207031 45.25 C 11.207031 44.941406 11.097656 44.65625 10.914062 44.4375 C 11.503906 43.457031 12.515625 42.539062 13.433594 41.703125 Z M 15.441406 5.417969 L 17.226562 5.292969 C 17.503906 5.273438 17.71875 5.042969 17.71875 4.765625 L 17.71875 4.429688 C 17.71875 4.152344 17.503906 3.921875 17.226562 3.902344 L 15.441406 3.777344 C 15.136719 3.757812 14.875 4 14.875 4.304688 L 14.875 4.890625 C 14.875 5.195312 15.136719 5.4375 15.441406 5.417969 Z M 8.742188 5.292969 L 10.53125 5.417969 C 10.835938 5.4375 11.09375 5.199219 11.09375 4.894531 L 11.101562 4.894531 L 11.101562 4.300781 L 11.09375 4.300781 C 11.09375 3.996094 10.835938 3.757812 10.53125 3.777344 L 8.742188 3.902344 C 8.464844 3.921875 8.25 4.152344 8.25 4.429688 L 8.25 4.765625 C 8.25 4.875 8.285156 4.972656 8.339844 5.058594 C 8.429688 5.191406 8.574219 5.28125 8.742188 5.292969 Z M 34.480469 13.507812 L 34.144531 13.386719 C 33.4375 13.136719 32.660156 13.164062 31.984375 13.484375 C 31.171875 13.867188 30.488281 14.390625 29.957031 14.894531 C 29.066406 15.738281 28.835938 17.066406 29.359375 18.171875 C 31.105469 15.613281 34.480469 13.507812 34.480469 13.507812 Z M 44.964844 67.132812 C 44.398438 69.625 44.347656 72.292969 44.347656 72.292969 L 46.0625 82.324219 C 46.0625 82.324219 36.621094 81.800781 23.285156 74.0625 C 23.285156 74.0625 23.386719 73.25 24.367188 72.105469 C 24.902344 67.835938 24.980469 64.089844 24.914062 61.339844 L 23.285156 63.65625 L 12.984375 58.195312 L 22.488281 41 C 22.613281 40.730469 22.757812 40.472656 22.917969 40.222656 C 24.027344 38.46875 25.894531 37.160156 28.175781 36.777344 C 29.996094 36.46875 31.734375 36.304688 33.03125 36.40625 C 38.625 36.84375 42.910156 37.402344 44.421875 38.132812 C 45.121094 38.46875 45.886719 39.351562 46.585938 40.554688 L 46.59375 40.574219 C 46.722656 40.792969 46.847656 41.023438 46.972656 41.265625 L 54.132812 54.484375 L 47.300781 58.003906 C 46.496094 61.0625 45.582031 64.417969 44.964844 67.132812 " fill-opacity="1" fill-rule="nonzero"/></g><path fill="#f9d291" d="M 37.136719 47.992188 C 36.90625 47.761719 36.363281 47.546875 36.074219 48.191406 L 35.253906 48.058594 L 32.335938 49.363281 C 32.199219 49.421875 32.085938 49.519531 32.003906 49.644531 L 30.070312 52.695312 L 17.8125 60.65625 C 17.785156 60.671875 17.757812 60.695312 17.734375 60.710938 L 15.9375 59.757812 L 15.3125 61.03125 C 14.363281 62.96875 15.097656 65.316406 16.988281 66.367188 C 17.398438 66.59375 17.835938 66.742188 18.277344 66.816406 C 19.574219 67.402344 21.160156 67.167969 22.230469 66.097656 L 31.65625 56.648438 L 33.148438 55.910156 C 34.195312 55.390625 34.871094 54.335938 34.90625 53.167969 L 35.496094 53.601562 C 35.816406 53.835938 36.265625 53.710938 36.417969 53.347656 C 36.417969 53.347656 37.277344 53.289062 36.703125 52.285156 L 36.539062 51.941406 L 37.007812 52.230469 C 37.226562 52.363281 37.503906 52.183594 37.46875 51.929688 L 37.277344 50.539062 C 37.476562 50.519531 37.679688 50.421875 37.636719 50.113281 C 37.558594 49.519531 37.375 48.230469 37.136719 47.992188 Z M 58.984375 52.550781 C 59.175781 52.039062 59.039062 50.515625 59.039062 50.515625 L 58.015625 51.988281 C 58.015625 51.988281 53.871094 53.042969 53.484375 53.429688 C 53.097656 53.8125 52.96875 54.371094 52.96875 54.371094 C 52.96875 54.371094 51.128906 55.140625 51.128906 55.695312 C 51.128906 56.25 51.34375 56.464844 51.6875 56.464844 C 52.027344 56.464844 52.328125 56.464844 52.328125 56.464844 C 52.328125 56.464844 51.984375 57.136719 52.285156 57.421875 C 52.480469 57.605469 52.246094 57.882812 52.332031 58.113281 L 46.796875 64.515625 C 45.574219 65.929688 45.925781 68.097656 47.527344 69.054688 C 48.988281 69.925781 50.882812 69.414062 51.703125 67.921875 L 58.320312 55.875 L 58.257812 55.84375 C 58.398438 55.757812 58.535156 55.664062 58.597656 55.523438 C 58.746094 55.203125 58.789062 54.476562 58.984375 54.21875 C 59.175781 53.964844 58.789062 53.066406 58.984375 52.550781 Z M 45.664062 29.84375 C 45.320312 31.023438 43.441406 35.015625 41.398438 35.308594 C 40.851562 35.390625 40.304688 35.367188 39.765625 35.261719 L 39.839844 36.957031 L 41.035156 37.503906 L 37.601562 45.667969 L 31.5 36.613281 L 32.894531 36.269531 C 33.238281 34.417969 33.347656 32.535156 33.230469 30.660156 C 33.042969 30.445312 32.871094 30.242188 32.71875 30.054688 C 32.472656 29.761719 32.214844 29.398438 31.949219 28.953125 C 31.066406 28.007812 30.101562 26.328125 30.179688 25.136719 C 30.082031 24.878906 29.984375 24.617188 29.886719 24.339844 C 28.40625 20.164062 30.921875 15.585938 35.265625 14.695312 C 39.304688 13.867188 43.753906 15.570312 45 16.496094 C 47.265625 18.179688 46.007812 28.664062 45.664062 29.84375 " fill-opacity="1" fill-rule="nonzero"/><g clip-path="url(#2cd7f8d1bd)"><path fill="#30526a" d="M 52.238281 6.324219 C 51.433594 6.664062 49.351562 7.382812 49.246094 7.621094 C 49.148438 7.84375 50.136719 7.773438 51.039062 7.871094 C 51.027344 7.863281 51.023438 7.855469 51.023438 7.855469 C 51.023438 7.855469 53.203125 6.882812 54.328125 6.757812 C 55.453125 6.632812 56.488281 6.128906 56.257812 5.644531 C 56.066406 5.246094 54.644531 5.578125 53.753906 5.636719 C 53.300781 5.886719 52.671875 6.140625 52.238281 6.324219 Z M 50.101562 10.964844 C 51.160156 10.945312 52.414062 11.792969 53.195312 11.167969 C 53.976562 10.539062 50.460938 9.617188 50.460938 9.617188 C 50.460938 9.617188 55.695312 8.941406 55.753906 7.976562 C 55.792969 7.28125 53.863281 7.789062 52.539062 7.960938 C 52.160156 8.007812 51.875 8.023438 51.660156 8.015625 C 52.136719 8.207031 52.46875 8.558594 52.28125 8.726562 C 52.042969 8.9375 50.59375 9.035156 49.980469 9.199219 C 49.367188 9.359375 47.210938 8.746094 46.730469 8.621094 C 46.351562 8.519531 42.023438 11.308594 40.25 12.464844 L 46.300781 10.3125 C 46.300781 10.3125 49.042969 10.988281 50.101562 10.964844 Z M 50.5625 3.234375 C 50.832031 2.953125 50.996094 2.574219 51.03125 2.300781 C 50.628906 2.527344 50.203125 2.753906 49.84375 2.96875 C 48.699219 3.65625 48.71875 3.992188 48.71875 3.992188 C 48.71875 3.992188 49.449219 3.804688 50.261719 3.535156 C 50.367188 3.4375 50.46875 3.335938 50.5625 3.234375 Z M 39.171875 6.46875 C 38.59375 6.523438 38.222656 6.554688 38.222656 6.554688 L 38.269531 6.777344 Z M 50.65625 5.710938 C 50.507812 5.722656 50.414062 5.734375 50.414062 5.734375 C 50.414062 5.734375 52.203125 5.042969 52.769531 4.714844 C 53.335938 4.390625 54.851562 4.171875 54.734375 3.554688 C 54.671875 3.214844 53.550781 3.503906 52.703125 3.742188 C 52.347656 3.957031 52.027344 4.164062 51.867188 4.34375 C 51.386719 4.886719 49.566406 6.03125 49.566406 6.03125 C 49.566406 6.03125 50.078125 5.871094 50.65625 5.710938 Z M 80.875 43.089844 L 76.578125 53.054688 L 77.164062 53.335938 L 82.226562 43.734375 Z M 75.765625 75.949219 C 75.601562 75.949219 75.46875 76.082031 75.46875 76.246094 L 75.46875 89.664062 C 75.46875 89.828125 75.601562 89.960938 75.765625 89.960938 C 75.929688 89.960938 76.0625 89.828125 76.0625 89.664062 L 76.0625 76.246094 C 76.0625 76.082031 75.929688 75.949219 75.765625 75.949219 Z M 60.925781 75.949219 C 60.761719 75.949219 60.628906 76.082031 60.628906 76.246094 L 60.628906 89.664062 C 60.628906 89.828125 60.761719 89.960938 60.925781 89.960938 C 61.089844 89.960938 61.222656 89.828125 61.222656 89.664062 L 61.222656 76.246094 C 61.222656 76.082031 61.089844 75.949219 60.925781 75.949219 Z M 74.050781 43.636719 L 74.050781 43.441406 L 64.886719 43.441406 L 64.886719 43.636719 Z M 65.15625 39.738281 L 64.667969 40.003906 C 64.886719 40.382812 65.148438 40.730469 65.445312 41.046875 L 65.847656 40.660156 L 65.914062 40.734375 L 65.511719 41.117188 C 65.867188 41.480469 66.273438 41.796875 66.71875 42.050781 L 66.984375 41.5625 L 67.160156 41.660156 L 66.890625 42.148438 C 67.269531 42.347656 67.675781 42.503906 68.105469 42.613281 L 68.238281 42.070312 L 68.332031 42.09375 L 68.199219 42.636719 C 68.578125 42.722656 68.96875 42.773438 69.371094 42.78125 L 69.371094 42.226562 L 69.566406 42.226562 L 69.566406 42.78125 C 70.011719 42.773438 70.441406 42.714844 70.855469 42.609375 L 70.710938 42.070312 L 70.804688 42.042969 L 70.949219 42.582031 C 71.332031 42.472656 71.699219 42.328125 72.046875 42.148438 L 71.777344 41.660156 L 71.949219 41.5625 L 72.21875 42.050781 C 72.597656 41.835938 72.945312 41.574219 73.261719 41.277344 L 72.875 40.875 L 72.949219 40.808594 L 73.332031 41.210938 C 73.699219 40.851562 74.011719 40.449219 74.265625 40.003906 L 73.78125 39.738281 L 73.875 39.5625 L 74.363281 39.832031 C 74.5625 39.453125 74.722656 39.046875 74.828125 38.621094 L 74.285156 38.488281 L 74.3125 38.390625 L 74.851562 38.523438 C 74.941406 38.148438 74.992188 37.757812 74.996094 37.355469 L 74.441406 37.355469 L 74.441406 37.15625 L 74.996094 37.15625 C 74.988281 36.714844 74.929688 36.285156 74.824219 35.871094 L 74.285156 36.015625 L 74.257812 35.921875 L 74.796875 35.777344 C 74.691406 35.394531 74.542969 35.027344 74.363281 34.683594 L 73.875 34.949219 L 73.78125 34.777344 L 74.265625 34.507812 C 74.050781 34.132812 73.789062 33.78125 73.492188 33.46875 L 73.089844 33.851562 L 73.023438 33.78125 L 73.425781 33.394531 C 73.070312 33.03125 72.664062 32.71875 72.21875 32.464844 L 71.949219 32.949219 L 71.777344 32.855469 L 72.046875 32.367188 C 71.664062 32.167969 71.257812 32.007812 70.832031 31.902344 L 70.699219 32.441406 L 70.601562 32.417969 L 70.734375 31.878906 C 70.359375 31.789062 69.96875 31.738281 69.566406 31.734375 L 69.566406 32.289062 L 69.371094 32.289062 L 69.371094 31.734375 C 68.925781 31.742188 68.492188 31.800781 68.082031 31.90625 L 68.226562 32.445312 L 68.128906 32.472656 L 67.988281 31.933594 C 67.601562 32.039062 67.238281 32.183594 66.890625 32.367188 L 67.160156 32.855469 L 66.984375 32.949219 L 66.71875 32.464844 C 66.214844 32.75 65.757812 33.117188 65.371094 33.542969 L 65.789062 33.914062 L 65.722656 33.988281 L 65.304688 33.617188 C 65.066406 33.894531 64.851562 34.191406 64.667969 34.507812 L 65.15625 34.777344 L 65.0625 34.949219 L 64.574219 34.683594 C 64.375 35.0625 64.214844 35.46875 64.105469 35.894531 L 64.648438 36.027344 L 64.625 36.121094 L 64.085938 35.992188 C 63.996094 36.367188 63.945312 36.757812 63.9375 37.15625 L 64.496094 37.15625 L 64.496094 37.355469 L 63.9375 37.355469 C 63.945312 37.800781 64.003906 38.230469 64.113281 38.640625 L 64.652344 38.496094 L 64.679688 38.59375 L 64.140625 38.738281 C 64.246094 39.121094 64.390625 39.488281 64.574219 39.832031 L 65.0625 39.5625 Z M 63.554688 43.539062 C 63.554688 43.332031 63.386719 43.164062 63.179688 43.164062 C 62.972656 43.164062 62.804688 43.332031 62.804688 43.539062 C 62.804688 43.746094 62.972656 43.914062 63.179688 43.914062 C 63.386719 43.914062 63.554688 43.746094 63.554688 43.539062 Z M 63.082031 32.679688 L 63.082031 41.832031 L 63.277344 41.832031 L 63.277344 32.679688 Z M 62.789062 30.957031 C 62.789062 31.164062 62.953125 31.332031 63.164062 31.332031 C 63.371094 31.332031 63.539062 31.164062 63.539062 30.957031 C 63.539062 30.75 63.371094 30.582031 63.164062 30.582031 C 62.953125 30.582031 62.789062 30.75 62.789062 30.957031 Z M 64.886719 31.054688 L 74.050781 31.054688 L 74.050781 30.859375 L 64.886719 30.859375 Z M 75.390625 43.546875 C 75.390625 43.753906 75.558594 43.921875 75.765625 43.921875 C 75.972656 43.921875 76.140625 43.753906 76.140625 43.546875 C 76.140625 43.339844 75.972656 43.171875 75.765625 43.171875 C 75.558594 43.171875 75.390625 43.339844 75.390625 43.546875 Z M 75.675781 32.679688 L 75.675781 41.832031 L 75.871094 41.832031 L 75.871094 32.679688 Z M 75.398438 30.957031 C 75.398438 31.164062 75.566406 31.332031 75.773438 31.332031 C 75.980469 31.332031 76.148438 31.164062 76.148438 30.957031 C 76.148438 30.75 75.980469 30.582031 75.773438 30.582031 C 75.566406 30.582031 75.398438 30.75 75.398438 30.957031 Z M 73.449219 46.648438 L 71.4375 46.828125 L 73.546875 47.800781 C 73.667969 47.859375 73.738281 47.988281 73.714844 48.121094 C 73.691406 48.253906 73.582031 48.355469 73.449219 48.367188 L 71.4375 48.546875 L 73.546875 49.519531 C 73.667969 49.574219 73.738281 49.707031 73.714844 49.839844 C 73.691406 49.96875 73.582031 50.070312 73.449219 50.082031 L 71.4375 50.261719 L 73.546875 51.234375 C 73.667969 51.289062 73.738281 51.421875 73.714844 51.554688 C 73.691406 51.6875 73.582031 51.785156 73.449219 51.800781 L 71.4375 51.976562 L 73.546875 52.953125 C 73.667969 53.007812 73.738281 53.136719 73.714844 53.269531 C 73.691406 53.402344 73.582031 53.503906 73.449219 53.515625 L 71.4375 53.695312 L 73.546875 54.667969 C 73.667969 54.722656 73.738281 54.855469 73.714844 54.988281 C 73.691406 55.117188 73.582031 55.21875 73.449219 55.230469 L 71.4375 55.410156 L 73.546875 56.382812 C 73.667969 56.441406 73.738281 56.570312 73.714844 56.703125 C 73.691406 56.835938 73.582031 56.9375 73.449219 56.949219 L 71.4375 57.125 L 73.546875 58.101562 C 73.667969 58.15625 73.738281 58.289062 73.714844 58.417969 C 73.691406 58.550781 73.582031 58.652344 73.449219 58.664062 L 71.4375 58.84375 L 73.546875 59.816406 C 73.667969 59.871094 73.738281 60.003906 73.714844 60.136719 C 73.691406 60.269531 73.582031 60.367188 73.449219 60.378906 L 71.4375 60.558594 L 72.34375 60.976562 C 72.453125 61.027344 72.515625 61.132812 72.515625 61.246094 L 72.515625 76.246094 L 71.921875 76.246094 L 71.921875 61.4375 L 70.179688 60.632812 C 70.058594 60.574219 69.988281 60.445312 70.011719 60.3125 C 70.035156 60.179688 70.144531 60.078125 70.277344 60.066406 L 72.289062 59.886719 L 70.179688 58.914062 C 70.152344 58.902344 70.132812 58.886719 70.109375 58.867188 C 70.105469 58.867188 70.101562 58.863281 70.101562 58.859375 C 70.078125 58.835938 70.058594 58.8125 70.042969 58.785156 C 70.039062 58.78125 70.039062 58.777344 70.035156 58.773438 C 70.023438 58.742188 70.015625 58.710938 70.011719 58.679688 C 70.011719 58.675781 70.007812 58.675781 70.007812 58.671875 C 70.007812 58.667969 70.007812 58.660156 70.007812 58.65625 C 70.007812 58.644531 70.007812 58.632812 70.007812 58.625 C 70.011719 58.613281 70.011719 58.605469 70.011719 58.59375 C 70.015625 58.585938 70.015625 58.578125 70.019531 58.566406 C 70.023438 58.558594 70.027344 58.546875 70.03125 58.535156 C 70.03125 58.53125 70.03125 58.527344 70.035156 58.523438 C 70.035156 58.519531 70.039062 58.515625 70.039062 58.511719 C 70.042969 58.503906 70.050781 58.492188 70.054688 58.484375 C 70.0625 58.476562 70.066406 58.46875 70.070312 58.464844 C 70.078125 58.457031 70.085938 58.449219 70.089844 58.441406 C 70.097656 58.433594 70.101562 58.425781 70.109375 58.421875 C 70.117188 58.414062 70.125 58.410156 70.132812 58.40625 C 70.140625 58.398438 70.148438 58.394531 70.15625 58.390625 C 70.167969 58.382812 70.175781 58.378906 70.183594 58.375 C 70.191406 58.371094 70.199219 58.367188 70.210938 58.367188 C 70.21875 58.363281 70.226562 58.359375 70.238281 58.359375 C 70.246094 58.355469 70.257812 58.355469 70.269531 58.351562 C 70.269531 58.351562 70.273438 58.351562 70.277344 58.351562 L 72.289062 58.171875 L 70.179688 57.199219 C 70.152344 57.1875 70.132812 57.171875 70.109375 57.152344 C 70.105469 57.148438 70.101562 57.148438 70.101562 57.144531 C 70.078125 57.121094 70.058594 57.097656 70.042969 57.070312 C 70.039062 57.0625 70.039062 57.058594 70.035156 57.054688 C 70.023438 57.027344 70.015625 56.996094 70.011719 56.960938 C 70.011719 56.960938 70.007812 56.957031 70.007812 56.957031 C 70.007812 56.949219 70.007812 56.945312 70.007812 56.9375 C 70.007812 56.929688 70.007812 56.917969 70.007812 56.90625 C 70.011719 56.898438 70.011719 56.886719 70.011719 56.878906 C 70.015625 56.871094 70.015625 56.859375 70.019531 56.851562 C 70.023438 56.839844 70.027344 56.832031 70.03125 56.820312 C 70.03125 56.816406 70.03125 56.808594 70.035156 56.804688 C 70.035156 56.800781 70.039062 56.800781 70.039062 56.796875 C 70.042969 56.789062 70.050781 56.777344 70.054688 56.769531 C 70.0625 56.761719 70.066406 56.753906 70.070312 56.746094 C 70.078125 56.738281 70.085938 56.730469 70.089844 56.726562 C 70.097656 56.71875 70.101562 56.710938 70.109375 56.707031 C 70.117188 56.699219 70.125 56.695312 70.132812 56.6875 C 70.140625 56.683594 70.148438 56.675781 70.15625 56.671875 C 70.167969 56.667969 70.175781 56.664062 70.183594 56.660156 C 70.191406 56.65625 70.199219 56.652344 70.210938 56.648438 C 70.21875 56.648438 70.226562 56.644531 70.238281 56.640625 C 70.246094 56.640625 70.257812 56.636719 70.269531 56.636719 C 70.269531 56.636719 70.273438 56.636719 70.277344 56.632812 L 72.289062 56.457031 L 70.179688 55.480469 C 70.152344 55.472656 70.132812 55.453125 70.109375 55.4375 C 70.105469 55.433594 70.101562 55.429688 70.101562 55.425781 C 70.078125 55.40625 70.058594 55.378906 70.042969 55.351562 C 70.039062 55.347656 70.039062 55.34375 70.035156 55.339844 C 70.023438 55.308594 70.015625 55.277344 70.011719 55.246094 C 70.011719 55.242188 70.007812 55.242188 70.007812 55.238281 C 70.007812 55.234375 70.007812 55.226562 70.007812 55.222656 C 70.007812 55.210938 70.007812 55.203125 70.007812 55.191406 C 70.011719 55.179688 70.011719 55.171875 70.011719 55.164062 C 70.015625 55.152344 70.015625 55.144531 70.019531 55.136719 C 70.023438 55.125 70.027344 55.113281 70.03125 55.105469 C 70.03125 55.097656 70.03125 55.09375 70.035156 55.089844 C 70.035156 55.085938 70.039062 55.082031 70.039062 55.082031 C 70.042969 55.070312 70.050781 55.0625 70.054688 55.054688 C 70.0625 55.046875 70.066406 55.039062 70.070312 55.03125 C 70.078125 55.023438 70.085938 55.015625 70.089844 55.007812 C 70.097656 55.003906 70.101562 54.996094 70.109375 54.988281 C 70.117188 54.984375 70.125 54.976562 70.132812 54.972656 C 70.140625 54.96875 70.148438 54.960938 70.15625 54.957031 C 70.167969 54.953125 70.175781 54.949219 70.183594 54.945312 C 70.191406 54.941406 70.199219 54.9375 70.210938 54.933594 C 70.21875 54.929688 70.226562 54.929688 70.238281 54.925781 C 70.246094 54.921875 70.257812 54.921875 70.269531 54.921875 C 70.269531 54.917969 70.273438 54.917969 70.277344 54.917969 L 72.289062 54.738281 L 70.179688 53.765625 C 70.152344 53.753906 70.132812 53.738281 70.109375 53.71875 C 70.105469 53.714844 70.101562 53.714844 70.101562 53.710938 C 70.078125 53.6875 70.058594 53.664062 70.042969 53.636719 C 70.039062 53.632812 70.039062 53.628906 70.035156 53.621094 C 70.023438 53.59375 70.015625 53.5625 70.011719 53.527344 C 70.011719 53.527344 70.007812 53.527344 70.007812 53.523438 C 70.007812 53.519531 70.007812 53.511719 70.007812 53.507812 C 70.007812 53.496094 70.007812 53.484375 70.007812 53.476562 C 70.011719 53.464844 70.011719 53.457031 70.011719 53.445312 C 70.015625 53.4375 70.015625 53.429688 70.019531 53.417969 C 70.023438 53.40625 70.027344 53.398438 70.03125 53.386719 C 70.03125 53.382812 70.03125 53.378906 70.035156 53.375 C 70.035156 53.371094 70.039062 53.367188 70.039062 53.363281 C 70.042969 53.355469 70.050781 53.34375 70.054688 53.335938 C 70.0625 53.328125 70.066406 53.320312 70.070312 53.316406 C 70.078125 53.308594 70.085938 53.300781 70.089844 53.292969 C 70.097656 53.285156 70.101562 53.277344 70.109375 53.273438 C 70.117188 53.265625 70.125 53.261719 70.132812 53.257812 C 70.140625 53.25 70.148438 53.246094 70.15625 53.242188 C 70.167969 53.234375 70.175781 53.230469 70.183594 53.226562 C 70.191406 53.222656 70.199219 53.21875 70.210938 53.214844 C 70.21875 53.214844 70.226562 53.210938 70.238281 53.210938 C 70.246094 53.207031 70.257812 53.207031 70.269531 53.203125 C 70.269531 53.203125 70.273438 53.203125 70.277344 53.203125 L 72.289062 53.023438 L 70.179688 52.050781 C 70.152344 52.039062 70.132812 52.023438 70.109375 52.003906 C 70.105469 52 70.101562 51.996094 70.101562 51.996094 C 70.078125 51.972656 70.058594 51.949219 70.042969 51.921875 C 70.039062 51.914062 70.039062 51.910156 70.035156 51.90625 C 70.023438 51.878906 70.015625 51.84375 70.011719 51.8125 C 70.011719 51.8125 70.007812 51.808594 70.007812 51.808594 C 70.007812 51.800781 70.007812 51.796875 70.007812 51.789062 C 70.007812 51.78125 70.007812 51.769531 70.007812 51.757812 C 70.011719 51.75 70.011719 51.738281 70.011719 51.730469 C 70.015625 51.722656 70.015625 51.710938 70.019531 51.703125 C 70.023438 51.691406 70.027344 51.683594 70.03125 51.671875 C 70.03125 51.667969 70.03125 51.660156 70.035156 51.65625 C 70.035156 51.652344 70.039062 51.652344 70.039062 51.648438 C 70.042969 51.640625 70.050781 51.628906 70.054688 51.621094 C 70.0625 51.613281 70.066406 51.605469 70.070312 51.597656 C 70.078125 51.589844 70.085938 51.582031 70.089844 51.578125 C 70.097656 51.570312 70.101562 51.5625 70.109375 51.558594 C 70.117188 51.550781 70.125 51.546875 70.132812 51.539062 C 70.140625 51.535156 70.148438 51.527344 70.15625 51.523438 C 70.167969 51.519531 70.175781 51.515625 70.183594 51.511719 C 70.191406 51.507812 70.199219 51.503906 70.210938 51.5 C 70.21875 51.5 70.226562 51.496094 70.238281 51.492188 C 70.246094 51.492188 70.257812 51.488281 70.269531 51.488281 C 70.269531 51.488281 70.273438 51.484375 70.277344 51.484375 L 72.289062 51.308594 L 70.179688 50.332031 C 70.152344 50.320312 70.132812 50.304688 70.109375 50.289062 C 70.105469 50.285156 70.101562 50.28125 70.101562 50.277344 C 70.078125 50.257812 70.058594 50.230469 70.042969 50.203125 C 70.039062 50.199219 70.039062 50.195312 70.035156 50.191406 C 70.023438 50.160156 70.015625 50.128906 70.011719 50.097656 C 70.011719 50.09375 70.007812 50.09375 70.007812 50.089844 C 70.007812 50.085938 70.007812 50.078125 70.007812 50.074219 C 70.007812 50.0625 70.007812 50.054688 70.007812 50.042969 C 70.011719 50.03125 70.011719 50.023438 70.011719 50.015625 C 70.015625 50.003906 70.015625 49.996094 70.019531 49.988281 C 70.023438 49.976562 70.027344 49.964844 70.03125 49.957031 C 70.03125 49.949219 70.03125 49.945312 70.035156 49.941406 C 70.035156 49.9375 70.039062 49.933594 70.039062 49.933594 C 70.042969 49.921875 70.050781 49.914062 70.054688 49.90625 C 70.0625 49.898438 70.066406 49.890625 70.070312 49.882812 C 70.078125 49.875 70.085938 49.867188 70.089844 49.859375 C 70.097656 49.855469 70.101562 49.847656 70.109375 49.839844 C 70.117188 49.835938 70.125 49.828125 70.132812 49.824219 C 70.140625 49.816406 70.148438 49.8125 70.15625 49.808594 C 70.167969 49.804688 70.175781 49.800781 70.183594 49.796875 C 70.191406 49.792969 70.199219 49.789062 70.210938 49.785156 C 70.21875 49.78125 70.226562 49.78125 70.238281 49.777344 C 70.246094 49.773438 70.257812 49.773438 70.269531 49.769531 C 70.269531 49.769531 70.273438 49.769531 70.277344 49.769531 L 72.289062 49.589844 L 70.179688 48.617188 C 70.152344 48.605469 70.132812 48.589844 70.109375 48.570312 C 70.105469 48.566406 70.101562 48.566406 70.101562 48.5625 C 70.078125 48.539062 70.058594 48.515625 70.042969 48.488281 C 70.039062 48.484375 70.039062 48.480469 70.035156 48.472656 C 70.023438 48.445312 70.015625 48.414062 70.011719 48.378906 C 70.011719 48.378906 70.007812 48.375 70.007812 48.375 C 70.007812 48.371094 70.007812 48.363281 70.007812 48.359375 C 70.007812 48.347656 70.007812 48.335938 70.007812 48.328125 C 70.011719 48.316406 70.011719 48.308594 70.011719 48.296875 C 70.015625 48.289062 70.015625 48.28125 70.019531 48.269531 C 70.023438 48.257812 70.027344 48.25 70.03125 48.238281 C 70.03125 48.234375 70.03125 48.230469 70.035156 48.222656 C 70.035156 48.222656 70.039062 48.21875 70.039062 48.214844 C 70.042969 48.207031 70.050781 48.195312 70.054688 48.1875 C 70.0625 48.179688 70.066406 48.171875 70.070312 48.167969 C 70.078125 48.160156 70.085938 48.152344 70.089844 48.144531 C 70.097656 48.136719 70.101562 48.128906 70.109375 48.125 C 70.117188 48.117188 70.125 48.113281 70.132812 48.105469 C 70.140625 48.101562 70.148438 48.097656 70.15625 48.089844 C 70.167969 48.085938 70.175781 48.082031 70.183594 48.078125 C 70.191406 48.074219 70.199219 48.070312 70.210938 48.066406 C 70.21875 48.066406 70.226562 48.0625 70.238281 48.0625 C 70.246094 48.058594 70.257812 48.058594 70.269531 48.054688 C 70.269531 48.054688 70.273438 48.054688 70.277344 48.054688 L 72.289062 47.875 L 70.179688 46.902344 C 70.152344 46.890625 70.132812 46.871094 70.109375 46.855469 C 70.105469 46.851562 70.101562 46.847656 70.101562 46.847656 C 70.078125 46.824219 70.058594 46.800781 70.042969 46.769531 C 70.039062 46.765625 70.039062 46.761719 70.035156 46.757812 C 70.023438 46.730469 70.015625 46.695312 70.011719 46.664062 C 70.011719 46.664062 70.007812 46.660156 70.007812 46.660156 C 70.007812 46.652344 70.007812 46.648438 70.007812 46.640625 C 70.007812 46.632812 70.007812 46.621094 70.007812 46.609375 C 70.011719 46.601562 70.011719 46.589844 70.011719 46.582031 C 70.015625 46.574219 70.015625 46.5625 70.019531 46.554688 C 70.023438 46.542969 70.027344 46.535156 70.03125 46.523438 C 70.03125 46.519531 70.03125 46.511719 70.035156 46.507812 C 70.035156 46.503906 70.039062 46.503906 70.039062 46.5 C 70.042969 46.488281 70.050781 46.480469 70.054688 46.472656 C 70.0625 46.464844 70.066406 46.457031 70.070312 46.449219 C 70.078125 46.441406 70.085938 46.433594 70.089844 46.425781 C 70.097656 46.421875 70.101562 46.414062 70.109375 46.410156 C 70.117188 46.402344 70.125 46.394531 70.132812 46.390625 C 70.140625 46.386719 70.148438 46.378906 70.15625 46.375 C 70.167969 46.371094 70.175781 46.367188 70.183594 46.363281 C 70.191406 46.359375 70.199219 46.355469 70.210938 46.351562 C 70.21875 46.347656 70.226562 46.347656 70.238281 46.34375 C 70.246094 46.34375 70.257812 46.339844 70.269531 46.339844 C 70.269531 46.339844 70.273438 46.335938 70.277344 46.335938 L 72.289062 46.160156 L 70.179688 45.183594 C 70.054688 45.128906 69.992188 44.996094 70.011719 44.867188 L 66.992188 44.867188 L 66.992188 65.894531 C 66.90625 65.84375 66.804688 65.8125 66.695312 65.8125 C 66.589844 65.8125 66.488281 65.84375 66.398438 65.894531 L 66.398438 44.867188 L 63.316406 44.867188 C 62.507812 44.867188 61.847656 44.210938 61.847656 43.402344 L 61.847656 31.113281 C 61.847656 30.300781 62.507812 29.644531 63.316406 29.644531 L 75.621094 29.644531 C 76.429688 29.644531 77.085938 30.300781 77.085938 31.113281 L 77.085938 43.402344 C 77.085938 44.210938 76.429688 44.867188 75.621094 44.867188 L 70.910156 44.867188 L 73.546875 46.085938 C 73.667969 46.140625 73.738281 46.273438 73.714844 46.40625 C 73.691406 46.539062 73.582031 46.636719 73.449219 46.648438 Z M 69.289062 37.59375 L 69.265625 38.742188 C 69.265625 38.742188 69.265625 38.746094 69.265625 38.75 C 69.269531 38.859375 69.359375 38.949219 69.472656 38.945312 C 69.582031 38.945312 69.671875 38.851562 69.671875 38.742188 L 69.648438 37.59375 C 69.769531 37.527344 69.851562 37.402344 69.851562 37.257812 C 69.851562 37.105469 69.761719 36.976562 69.636719 36.914062 L 69.566406 33.339844 C 69.566406 33.289062 69.523438 33.246094 69.46875 33.242188 C 69.414062 33.242188 69.371094 33.285156 69.371094 33.339844 L 69.300781 36.914062 C 69.171875 36.976562 69.085938 37.105469 69.085938 37.257812 C 69.085938 37.402344 69.167969 37.527344 69.289062 37.59375 Z M 19.476562 5.371094 L 17.71875 4.433594 L 17.71875 4.765625 C 17.71875 4.875 17.6875 4.972656 17.628906 5.058594 L 19.195312 5.894531 C 19.597656 6.109375 19.820312 6.539062 19.769531 6.984375 L 18.324219 18.671875 C 18.207031 19.617188 17.796875 20.484375 17.1875 21.175781 C 17.296875 21.203125 17.398438 21.261719 17.480469 21.351562 C 17.546875 21.421875 17.585938 21.503906 17.613281 21.589844 C 18.308594 20.808594 18.777344 19.820312 18.910156 18.746094 L 20.359375 7.054688 C 20.4375 6.363281 20.09375 5.703125 19.476562 5.371094 Z M 14.875 4.890625 L 14.875 4.304688 C 14.875 4.304688 14.875 4.300781 14.875 4.300781 L 14.867188 4.300781 L 14.867188 4.894531 L 14.875 4.894531 C 14.875 4.890625 14.875 4.890625 14.875 4.890625 Z M 8.542969 21.414062 C 8.625 21.320312 8.726562 21.261719 8.835938 21.234375 C 8.195312 20.535156 7.769531 19.644531 7.648438 18.671875 L 6.203125 6.988281 C 6.152344 6.539062 6.375 6.109375 6.773438 5.894531 L 8.339844 5.058594 C 8.285156 4.972656 8.25 4.875 8.25 4.765625 L 8.25 4.433594 L 6.496094 5.371094 C 5.878906 5.703125 5.53125 6.363281 5.613281 7.058594 L 7.058594 18.746094 C 7.195312 19.851562 7.683594 20.863281 8.417969 21.652344 C 8.441406 21.566406 8.480469 21.484375 8.542969 21.414062 Z M 10.914062 44.4375 C 11.097656 44.65625 11.207031 44.941406 11.207031 45.25 C 11.207031 45.957031 10.632812 46.53125 9.921875 46.53125 C 9.214844 46.53125 8.636719 45.957031 8.636719 45.25 C 8.636719 44.578125 9.15625 44.027344 9.8125 43.972656 C 10.050781 43.550781 10.34375 43.152344 10.671875 42.769531 C 10.433594 42.695312 10.183594 42.65625 9.921875 42.65625 C 8.488281 42.65625 7.328125 43.816406 7.328125 45.25 C 7.328125 46.679688 8.488281 47.839844 9.921875 47.839844 C 11.355469 47.839844 12.515625 46.679688 12.515625 45.25 C 12.515625 44.511719 12.207031 43.851562 11.714844 43.378906 C 11.40625 43.722656 11.132812 44.074219 10.914062 44.4375 Z M 56.847656 55.429688 C 56.46875 55.480469 56.09375 55.546875 55.71875 55.617188 C 55.339844 55.683594 54.96875 55.761719 54.59375 55.835938 C 54.21875 55.914062 53.847656 55.992188 53.472656 56.078125 C 53.101562 56.164062 52.730469 56.25 52.359375 56.351562 C 52.34375 56.355469 52.332031 56.375 52.332031 56.394531 C 52.335938 56.414062 52.355469 56.425781 52.375 56.425781 C 52.753906 56.371094 53.128906 56.308594 53.507812 56.242188 C 53.882812 56.175781 54.257812 56.097656 54.632812 56.027344 C 55.003906 55.949219 55.378906 55.871094 55.753906 55.789062 C 56.125 55.703125 56.496094 55.617188 56.867188 55.515625 C 56.886719 55.511719 56.902344 55.488281 56.898438 55.46875 C 56.894531 55.441406 56.871094 55.425781 56.847656 55.429688 Z M 57.210938 53.910156 C 56.84375 53.988281 56.484375 54.074219 56.121094 54.160156 C 55.761719 54.246094 55.402344 54.339844 55.039062 54.421875 C 54.683594 54.507812 54.316406 54.59375 53.957031 54.664062 C 53.78125 54.695312 53.601562 54.707031 53.433594 54.667969 C 53.265625 54.632812 53.105469 54.539062 53.011719 54.394531 C 53 54.378906 52.980469 54.371094 52.964844 54.378906 C 52.945312 54.390625 52.9375 54.410156 52.945312 54.429688 C 53.03125 54.613281 53.210938 54.734375 53.398438 54.796875 C 53.59375 54.855469 53.792969 54.847656 53.984375 54.828125 C 54.359375 54.773438 54.71875 54.691406 55.085938 54.613281 C 55.449219 54.523438 55.808594 54.433594 56.167969 54.332031 C 56.527344 54.226562 56.882812 54.117188 57.234375 54 C 57.253906 53.992188 57.269531 53.96875 57.261719 53.945312 C 57.257812 53.921875 57.234375 53.90625 57.210938 53.910156 Z M 43.371094 47.523438 L 38.539062 55.738281 L 38.570312 54.847656 L 37.46875 51.957031 C 37.476562 52.195312 37.21875 52.359375 37.007812 52.230469 L 36.621094 51.992188 C 36.554688 51.835938 36.492188 51.679688 36.425781 51.523438 C 36.316406 51.277344 36.210938 51.027344 36.097656 50.78125 C 35.875 50.289062 35.648438 49.800781 35.414062 49.316406 C 35.398438 49.277344 35.359375 49.257812 35.316406 49.261719 C 35.039062 49.304688 34.765625 49.359375 34.488281 49.40625 C 34.210938 49.457031 33.9375 49.511719 33.660156 49.570312 C 33.640625 49.574219 33.625 49.59375 33.625 49.617188 C 33.628906 49.640625 33.652344 49.660156 33.675781 49.65625 C 33.953125 49.628906 34.234375 49.597656 34.511719 49.5625 C 34.765625 49.527344 35.019531 49.496094 35.273438 49.457031 C 35.488281 49.925781 35.707031 50.394531 35.933594 50.859375 C 36.046875 51.101562 36.171875 51.34375 36.292969 51.582031 C 36.414062 51.824219 36.539062 52.066406 36.667969 52.300781 C 36.675781 52.320312 36.695312 52.328125 36.714844 52.320312 C 36.714844 52.320312 36.714844 52.316406 36.714844 52.316406 C 37.023438 52.863281 36.890625 53.121094 36.714844 53.242188 L 37.484375 55.261719 L 38.285156 56.097656 C 38.292969 56.109375 38.304688 56.117188 38.316406 56.121094 L 33.628906 64.085938 L 49.632812 64.085938 L 53.554688 58.433594 C 53.554688 58.453125 53.566406 58.46875 53.585938 58.472656 C 53.804688 58.507812 54.023438 58.519531 54.246094 58.515625 C 54.464844 58.511719 54.6875 58.492188 54.90625 58.453125 C 55.125 58.417969 55.339844 58.363281 55.550781 58.292969 C 55.761719 58.222656 55.964844 58.140625 56.160156 58.035156 C 56.175781 58.023438 56.1875 58.003906 56.179688 57.984375 C 56.171875 57.957031 56.148438 57.945312 56.125 57.953125 C 55.917969 58.011719 55.710938 58.074219 55.5 58.125 C 55.292969 58.175781 55.082031 58.222656 54.871094 58.257812 C 54.660156 58.296875 54.449219 58.324219 54.234375 58.347656 C 54.019531 58.371094 53.808594 58.382812 53.589844 58.394531 C 53.578125 58.394531 53.570312 58.402344 53.5625 58.410156 C 53.289062 58.453125 53.054688 58.464844 52.882812 58.429688 C 51.988281 58.246094 52.425781 57.832031 52.355469 57.539062 C 52.679688 57.6875 53.03125 57.761719 53.386719 57.78125 C 53.75 57.804688 54.113281 57.765625 54.472656 57.695312 C 54.824219 57.617188 55.171875 57.507812 55.503906 57.378906 C 55.839844 57.246094 56.164062 57.097656 56.484375 56.9375 C 56.503906 56.925781 56.511719 56.90625 56.503906 56.882812 C 56.496094 56.859375 56.472656 56.847656 56.449219 56.855469 C 56.109375 56.972656 55.78125 57.101562 55.445312 57.214844 C 55.109375 57.328125 54.773438 57.433594 54.429688 57.503906 C 54.089844 57.578125 53.742188 57.617188 53.390625 57.613281 C 53.042969 57.613281 52.695312 57.5625 52.359375 57.460938 C 52.347656 57.457031 52.335938 57.460938 52.324219 57.46875 C 52.3125 57.453125 52.300781 57.433594 52.285156 57.421875 C 51.984375 57.136719 52.328125 56.464844 52.328125 56.464844 C 52.328125 56.464844 52.027344 56.464844 51.6875 56.464844 C 51.34375 56.464844 51.128906 56.25 51.128906 55.695312 C 51.128906 55.140625 52.96875 54.371094 52.96875 54.371094 C 52.96875 54.371094 53.097656 53.8125 53.484375 53.429688 C 53.871094 53.042969 58.015625 51.988281 58.015625 51.988281 L 59.039062 50.515625 C 59.039062 50.515625 59.039062 50.523438 59.039062 50.527344 L 61.121094 47.523438 Z M 46.339844 44.535156 C 46.1875 44.214844 46.035156 43.894531 45.871094 43.578125 C 45.863281 43.5625 45.84375 43.554688 45.824219 43.5625 C 45.804688 43.570312 45.792969 43.589844 45.800781 43.609375 C 45.921875 43.945312 46.054688 44.273438 46.1875 44.601562 C 46.320312 44.929688 46.464844 45.25 46.601562 45.578125 C 46.746094 45.902344 46.890625 46.226562 47.039062 46.546875 C 47.191406 46.867188 47.34375 47.183594 47.507812 47.5 C 47.515625 47.519531 47.539062 47.53125 47.5625 47.523438 C 47.585938 47.511719 47.597656 47.488281 47.589844 47.464844 C 47.46875 47.128906 47.335938 46.804688 47.199219 46.476562 C 47.066406 46.148438 46.921875 45.824219 46.78125 45.5 C 46.636719 45.175781 46.492188 44.851562 46.339844 44.535156 Z M 34.230469 40.644531 C 34.226562 40.664062 34.238281 40.6875 34.257812 40.691406 C 34.632812 40.789062 35.015625 40.855469 35.3125 41.054688 C 35.464844 41.152344 35.582031 41.289062 35.71875 41.433594 C 35.851562 41.574219 36.003906 41.722656 36.203125 41.792969 C 36.21875 41.800781 36.242188 41.792969 36.253906 41.773438 C 36.265625 41.753906 36.261719 41.726562 36.238281 41.710938 C 36.085938 41.613281 35.96875 41.46875 35.851562 41.320312 C 35.734375 41.167969 35.601562 41.007812 35.421875 40.890625 C 35.246094 40.777344 35.050781 40.707031 34.855469 40.671875 C 34.65625 40.632812 34.460938 40.617188 34.265625 40.617188 C 34.25 40.617188 34.234375 40.628906 34.230469 40.644531 Z M 39.148438 40.765625 C 39.03125 40.800781 38.925781 40.859375 38.832031 40.9375 C 38.648438 41.09375 38.519531 41.328125 38.527344 41.566406 C 38.527344 41.578125 38.535156 41.59375 38.550781 41.597656 C 38.570312 41.609375 38.59375 41.597656 38.601562 41.578125 C 38.644531 41.476562 38.691406 41.386719 38.75 41.308594 C 38.8125 41.226562 38.878906 41.152344 38.957031 41.089844 C 39.035156 41.023438 39.121094 40.972656 39.210938 40.929688 C 39.300781 40.886719 39.398438 40.855469 39.5 40.832031 L 39.503906 40.832031 C 39.519531 40.828125 39.535156 40.816406 39.539062 40.796875 C 39.542969 40.773438 39.527344 40.75 39.503906 40.742188 C 39.386719 40.71875 39.261719 40.730469 39.148438 40.765625 Z M 31.171875 26.167969 C 31.25 26.160156 31.347656 26.210938 31.445312 26.269531 C 31.636719 26.382812 31.8125 26.53125 31.949219 26.699219 L 31.953125 26.703125 C 31.976562 26.730469 32.019531 26.746094 32.058594 26.734375 C 32.109375 26.714844 32.136719 26.664062 32.121094 26.613281 C 31.992188 26.199219 31.792969 25.804688 31.523438 25.46875 C 31.386719 25.300781 31.246094 25.140625 31.074219 25.003906 C 30.90625 24.867188 30.652344 24.765625 30.433594 24.871094 C 30.417969 24.878906 30.410156 24.898438 30.414062 24.917969 C 30.421875 24.9375 30.441406 24.949219 30.460938 24.941406 L 30.464844 24.941406 C 30.648438 24.878906 30.847656 24.96875 30.988281 25.101562 C 31.136719 25.238281 31.273438 25.402344 31.390625 25.566406 C 31.550781 25.789062 31.683594 26.023438 31.789062 26.273438 C 31.710938 26.210938 31.628906 26.15625 31.539062 26.105469 C 31.4375 26.050781 31.320312 25.972656 31.15625 25.984375 C 31.074219 25.984375 30.972656 26.046875 30.941406 26.136719 C 30.910156 26.230469 30.929688 26.304688 30.945312 26.363281 C 31.066406 26.828125 31.269531 27.269531 31.554688 27.652344 C 31.570312 27.667969 31.59375 27.675781 31.613281 27.664062 C 31.636719 27.648438 31.644531 27.621094 31.628906 27.601562 C 31.390625 27.203125 31.214844 26.769531 31.117188 26.324219 C 31.109375 26.273438 31.105469 26.226562 31.113281 26.203125 C 31.125 26.179688 31.136719 26.171875 31.171875 26.167969 Z M 33.121094 26.34375 C 33.074219 26.195312 33.027344 26.042969 32.992188 25.886719 C 32.953125 25.734375 32.929688 25.578125 32.90625 25.421875 C 32.882812 25.265625 32.871094 25.105469 32.859375 24.941406 C 32.855469 24.925781 32.84375 24.910156 32.828125 24.90625 C 32.808594 24.902344 32.785156 24.917969 32.78125 24.9375 C 32.746094 25.101562 32.734375 25.265625 32.738281 25.433594 C 32.742188 25.601562 32.761719 25.769531 32.800781 25.933594 C 32.835938 26.097656 32.886719 26.257812 32.957031 26.410156 C 33.027344 26.5625 33.109375 26.707031 33.214844 26.839844 C 33.226562 26.855469 33.246094 26.863281 33.265625 26.855469 C 33.289062 26.84375 33.300781 26.820312 33.292969 26.796875 C 33.230469 26.644531 33.171875 26.496094 33.121094 26.34375 Z M 45.320312 24.421875 C 45.335938 24.433594 45.359375 24.4375 45.375 24.425781 C 45.394531 24.410156 45.398438 24.382812 45.382812 24.363281 C 45.261719 24.195312 45.117188 24.050781 44.953125 23.921875 C 44.792969 23.792969 44.613281 23.6875 44.429688 23.597656 C 44.242188 23.511719 44.042969 23.441406 43.84375 23.398438 C 43.640625 23.359375 43.433594 23.335938 43.230469 23.347656 C 43.210938 23.347656 43.199219 23.363281 43.195312 23.378906 C 43.191406 23.398438 43.203125 23.417969 43.226562 23.421875 C 43.421875 23.460938 43.613281 23.503906 43.800781 23.5625 C 43.984375 23.621094 44.167969 23.691406 44.34375 23.773438 C 44.519531 23.859375 44.6875 23.957031 44.851562 24.0625 C 45.015625 24.171875 45.167969 24.292969 45.320312 24.421875 Z M 41.015625 32.476562 C 41.113281 32.488281 41.207031 32.484375 41.304688 32.476562 C 41.398438 32.464844 41.496094 32.449219 41.585938 32.421875 C 41.679688 32.394531 41.769531 32.359375 41.855469 32.3125 C 41.867188 32.304688 41.878906 32.289062 41.878906 32.269531 C 41.875 32.246094 41.855469 32.226562 41.828125 32.226562 C 41.734375 32.230469 41.644531 32.242188 41.550781 32.25 L 41.011719 32.3125 C 40.921875 32.324219 40.832031 32.332031 40.738281 32.351562 C 40.722656 32.351562 40.710938 32.359375 40.707031 32.375 C 40.699219 32.394531 40.710938 32.417969 40.730469 32.425781 C 40.824219 32.457031 40.917969 32.46875 41.015625 32.476562 Z M 43.226562 30.730469 C 43.242188 30.71875 43.242188 30.695312 43.230469 30.679688 C 43.214844 30.664062 43.191406 30.664062 43.175781 30.675781 C 42.878906 30.925781 42.550781 31.128906 42.195312 31.277344 C 41.84375 31.425781 41.472656 31.53125 41.09375 31.558594 C 40.714844 31.601562 40.332031 31.570312 39.960938 31.492188 C 39.585938 31.410156 39.222656 31.273438 38.886719 31.085938 C 38.867188 31.074219 38.839844 31.082031 38.828125 31.097656 C 38.8125 31.121094 38.816406 31.148438 38.839844 31.160156 C 39.160156 31.394531 39.53125 31.558594 39.917969 31.660156 C 40.308594 31.761719 40.714844 31.792969 41.113281 31.757812 C 41.511719 31.710938 41.90625 31.605469 42.265625 31.429688 C 42.625 31.257812 42.957031 31.019531 43.226562 30.730469 Z M 41.558594 28.535156 C 41.351562 28.664062 41.085938 28.703125 40.824219 28.6875 C 40.804688 28.683594 40.785156 28.699219 40.777344 28.71875 C 40.773438 28.742188 40.789062 28.769531 40.8125 28.773438 C 41.082031 28.839844 41.382812 28.828125 41.648438 28.683594 C 41.78125 28.617188 41.894531 28.503906 41.96875 28.367188 C 42.039062 28.234375 42.070312 28.082031 42.074219 27.9375 C 42.078125 27.648438 42.023438 27.382812 41.96875 27.117188 C 41.914062 26.851562 41.839844 26.585938 41.746094 26.332031 C 41.742188 26.316406 41.722656 26.304688 41.707031 26.308594 C 41.683594 26.3125 41.671875 26.332031 41.675781 26.351562 C 41.722656 26.617188 41.769531 26.882812 41.808594 27.144531 C 41.839844 27.410156 41.890625 27.679688 41.878906 27.929688 C 41.875 28.054688 41.851562 28.175781 41.800781 28.28125 C 41.746094 28.386719 41.664062 28.46875 41.558594 28.535156 Z M 39.511719 23.398438 C 39.535156 23.394531 39.550781 23.375 39.550781 23.355469 C 39.550781 23.328125 39.53125 23.308594 39.503906 23.308594 C 39.257812 23.304688 39.007812 23.339844 38.765625 23.398438 C 38.519531 23.457031 38.285156 23.546875 38.058594 23.65625 C 37.835938 23.769531 37.621094 23.902344 37.429688 24.0625 C 37.234375 24.21875 37.058594 24.398438 36.910156 24.597656 C 36.898438 24.613281 36.902344 24.632812 36.914062 24.644531 C 36.925781 24.660156 36.949219 24.664062 36.964844 24.648438 C 37.144531 24.484375 37.332031 24.332031 37.53125 24.195312 C 37.726562 24.058594 37.933594 23.9375 38.148438 23.832031 C 38.363281 23.726562 38.585938 23.640625 38.8125 23.566406 C 39.039062 23.492188 39.273438 23.441406 39.511719 23.398438 Z M 35.464844 33.039062 L 35.160156 32.734375 C 35.066406 32.628906 34.980469 32.515625 34.886719 32.40625 L 34.75 32.238281 L 34.632812 32.0625 L 34.394531 31.703125 L 34.390625 31.699219 C 34.378906 31.679688 34.351562 31.671875 34.332031 31.683594 C 34.3125 31.695312 34.304688 31.722656 34.316406 31.742188 C 34.59375 32.253906 34.917969 32.753906 35.34375 33.164062 C 35.761719 33.574219 36.226562 33.941406 36.734375 34.234375 C 37.246094 34.523438 37.777344 34.769531 38.332031 34.953125 C 38.886719 35.140625 39.457031 35.28125 40.039062 35.347656 C 40.058594 35.347656 40.074219 35.335938 40.078125 35.316406 C 40.082031 35.296875 40.070312 35.277344 40.046875 35.273438 C 39.765625 35.21875 39.484375 35.152344 39.207031 35.066406 C 38.933594 34.988281 38.660156 34.898438 38.390625 34.796875 C 37.851562 34.597656 37.328125 34.355469 36.835938 34.0625 C 36.332031 33.785156 35.882812 33.425781 35.464844 33.039062 Z M 37.863281 48.257812 C 37.914062 48.277344 37.96875 48.253906 37.988281 48.207031 L 39.976562 43.304688 C 40.644531 41.671875 41.296875 40.03125 41.949219 38.394531 C 41.957031 38.371094 41.949219 38.34375 41.925781 38.335938 C 41.902344 38.324219 41.875 38.335938 41.867188 38.359375 C 41.183594 39.984375 40.5 41.613281 39.832031 43.242188 L 37.882812 47.96875 C 36.714844 46.195312 35.53125 44.433594 34.355469 42.664062 L 32.539062 39.941406 L 30.707031 37.226562 C 30.699219 37.207031 30.675781 37.203125 30.65625 37.214844 C 30.640625 37.226562 30.636719 37.25 30.644531 37.265625 L 32.425781 40.015625 L 34.222656 42.753906 C 35.421875 44.574219 36.613281 46.40625 37.820312 48.222656 C 37.832031 48.238281 37.847656 48.25 37.863281 48.257812 Z M 31.058594 47.15625 C 31.179688 46.40625 31.199219 45.640625 31.089844 44.886719 C 30.976562 44.136719 30.746094 43.402344 30.402344 42.726562 C 30.054688 42.050781 29.613281 41.425781 29.089844 40.882812 C 28.042969 39.785156 26.761719 38.933594 25.363281 38.367188 C 25.347656 38.359375 25.324219 38.367188 25.316406 38.386719 C 25.308594 38.40625 25.316406 38.429688 25.335938 38.4375 L 25.339844 38.4375 C 26.023438 38.726562 26.671875 39.109375 27.285156 39.535156 C 27.894531 39.960938 28.464844 40.445312 28.964844 40.996094 C 29.46875 41.539062 29.902344 42.148438 30.234375 42.808594 C 30.570312 43.472656 30.789062 44.183594 30.894531 44.917969 C 31.003906 45.648438 30.988281 46.394531 30.871094 47.125 C 30.753906 47.859375 30.554688 48.578125 30.324219 49.289062 C 30.089844 49.996094 29.824219 50.695312 29.535156 51.382812 C 29.246094 52.074219 28.9375 52.757812 28.601562 53.425781 C 28.589844 53.445312 28.597656 53.472656 28.617188 53.484375 C 28.640625 53.496094 28.667969 53.488281 28.679688 53.464844 C 29.386719 52.140625 30 50.765625 30.488281 49.34375 C 30.734375 48.632812 30.933594 47.902344 31.058594 47.15625 Z M 17.792969 59.003906 L 16.457031 58.253906 L 15.105469 57.527344 C 14.652344 57.289062 14.199219 57.054688 13.738281 56.828125 C 13.722656 56.820312 13.703125 56.824219 13.691406 56.84375 C 13.679688 56.859375 13.6875 56.882812 13.703125 56.894531 C 14.140625 57.160156 14.582031 57.417969 15.023438 57.675781 L 16.359375 58.429688 L 17.707031 59.160156 C 18.160156 59.398438 18.613281 59.636719 19.070312 59.863281 C 19.09375 59.871094 19.117188 59.867188 19.128906 59.84375 C 19.140625 59.824219 19.136719 59.796875 19.113281 59.785156 C 18.679688 59.515625 18.234375 59.261719 17.792969 59.003906 Z M 17.6875 60.667969 C 17.496094 60.65625 17.308594 60.699219 17.136719 60.757812 C 16.960938 60.820312 16.796875 60.910156 16.65625 61.023438 C 16.640625 61.035156 16.636719 61.054688 16.644531 61.070312 C 16.65625 61.089844 16.679688 61.097656 16.699219 61.085938 C 16.847656 61 17.011719 60.941406 17.175781 60.898438 C 17.246094 60.878906 17.316406 60.871094 17.386719 60.859375 C 17.324219 60.910156 17.261719 60.960938 17.203125 61.011719 C 17.070312 61.132812 16.949219 61.265625 16.835938 61.40625 C 16.722656 61.546875 16.625 61.699219 16.535156 61.851562 C 16.449219 62.007812 16.375 62.171875 16.316406 62.34375 C 16.3125 62.363281 16.320312 62.386719 16.339844 62.394531 C 16.359375 62.40625 16.386719 62.398438 16.398438 62.378906 C 16.480469 62.222656 16.574219 62.078125 16.667969 61.933594 C 16.761719 61.789062 16.871094 61.65625 16.980469 61.523438 C 17.089844 61.394531 17.210938 61.273438 17.335938 61.15625 C 17.460938 61.039062 17.59375 60.933594 17.734375 60.832031 C 17.757812 60.816406 17.769531 60.792969 17.773438 60.761719 C 17.777344 60.714844 17.738281 60.671875 17.6875 60.667969 Z M 31.8125 56.371094 C 31.699219 56.386719 31.585938 56.40625 31.472656 56.417969 C 31.359375 56.425781 31.25 56.433594 31.136719 56.429688 C 31.023438 56.429688 30.910156 56.421875 30.800781 56.410156 C 30.6875 56.398438 30.574219 56.375 30.460938 56.355469 C 30.441406 56.355469 30.425781 56.359375 30.414062 56.378906 C 30.398438 56.398438 30.40625 56.425781 30.429688 56.441406 C 30.53125 56.507812 30.648438 56.550781 30.769531 56.582031 C 30.886719 56.613281 31.011719 56.625 31.132812 56.628906 C 31.257812 56.625 31.382812 56.613281 31.503906 56.582031 C 31.621094 56.550781 31.738281 56.503906 31.839844 56.441406 C 31.855469 56.433594 31.863281 56.417969 31.859375 56.402344 C 31.855469 56.378906 31.835938 56.367188 31.8125 56.371094 Z M 33.96875 53.703125 C 33.984375 53.488281 33.972656 53.277344 33.925781 53.070312 C 33.921875 53.054688 33.90625 53.042969 33.886719 53.042969 C 33.867188 53.042969 33.847656 53.058594 33.847656 53.082031 C 33.851562 53.285156 33.835938 53.484375 33.800781 53.679688 C 33.765625 53.875 33.714844 54.066406 33.640625 54.25 C 33.570312 54.4375 33.480469 54.613281 33.375 54.78125 C 33.269531 54.949219 33.144531 55.105469 33.007812 55.257812 C 32.996094 55.273438 32.992188 55.296875 33.003906 55.3125 C 33.019531 55.332031 33.046875 55.339844 33.066406 55.324219 C 33.242188 55.203125 33.390625 55.050781 33.519531 54.878906 C 33.648438 54.710938 33.75 54.519531 33.824219 54.320312 C 33.898438 54.121094 33.949219 53.914062 33.96875 53.703125 Z M 33.652344 52.796875 C 33.816406 52.824219 33.976562 52.855469 34.136719 52.878906 C 34.390625 53.023438 34.640625 53.175781 34.898438 53.3125 C 35.15625 53.460938 35.417969 53.601562 35.6875 53.734375 C 35.703125 53.742188 35.722656 53.738281 35.734375 53.722656 C 35.746094 53.707031 35.742188 53.683594 35.726562 53.667969 C 35.480469 53.5 35.230469 53.335938 34.980469 53.175781 C 34.730469 53.011719 34.472656 52.859375 34.21875 52.703125 C 34.210938 52.699219 34.199219 52.695312 34.191406 52.691406 L 34.1875 52.691406 C 34.019531 52.660156 33.851562 52.636719 33.683594 52.609375 L 33.183594 52.535156 C 32.847656 52.488281 32.511719 52.445312 32.175781 52.414062 C 32.152344 52.410156 32.132812 52.425781 32.125 52.449219 C 32.121094 52.472656 32.136719 52.496094 32.160156 52.5 C 32.488281 52.582031 32.820312 52.644531 33.15625 52.710938 Z M 32.765625 51.257812 C 33.078125 51.382812 33.394531 51.496094 33.710938 51.609375 C 34.023438 51.722656 34.335938 51.824219 34.648438 51.933594 C 34.785156 52.054688 34.925781 52.171875 35.066406 52.292969 L 35.5 52.660156 C 35.796875 52.902344 36.089844 53.144531 36.394531 53.375 C 36.40625 53.386719 36.429688 53.386719 36.441406 53.371094 C 36.457031 53.355469 36.457031 53.332031 36.441406 53.316406 C 36.171875 53.046875 35.894531 52.789062 35.613281 52.53125 L 35.191406 52.148438 C 35.046875 52.023438 34.90625 51.894531 34.761719 51.769531 C 34.75 51.761719 34.738281 51.757812 34.726562 51.753906 C 34.40625 51.652344 34.089844 51.542969 33.765625 51.449219 C 33.441406 51.351562 33.121094 51.253906 32.792969 51.171875 C 32.773438 51.164062 32.75 51.175781 32.742188 51.199219 C 32.730469 51.21875 32.742188 51.246094 32.765625 51.257812 Z M 36.703125 48.761719 L 36.699219 48.753906 C 36.699219 48.75 36.691406 48.742188 36.6875 48.738281 C 36.515625 48.535156 36.339844 48.332031 36.15625 48.144531 C 36.140625 48.128906 36.117188 48.125 36.097656 48.136719 C 36.078125 48.148438 36.070312 48.179688 36.085938 48.199219 C 36.226562 48.417969 36.378906 48.628906 36.535156 48.835938 C 36.632812 49.128906 36.746094 49.414062 36.859375 49.699219 C 36.917969 49.84375 36.980469 49.984375 37.042969 50.128906 C 37.105469 50.273438 37.171875 50.414062 37.242188 50.550781 C 37.25 50.570312 37.269531 50.578125 37.285156 50.574219 C 37.308594 50.566406 37.320312 50.546875 37.3125 50.527344 C 37.273438 50.375 37.230469 50.222656 37.179688 50.078125 C 37.132812 49.929688 37.085938 49.78125 37.035156 49.632812 C 36.929688 49.339844 36.820312 49.050781 36.703125 48.761719 Z M 34.042969 44.609375 C 33.742188 44.722656 33.59375 45.058594 33.707031 45.359375 L 34.8125 48.253906 L 35.253906 48.058594 L 36.03125 48.183594 L 34.792969 44.945312 C 34.679688 44.644531 34.34375 44.492188 34.042969 44.609375 Z M 30.171875 32.953125 C 30.695312 32.261719 31.191406 31.464844 31.652344 30.597656 C 32.105469 31.015625 32.511719 31.347656 32.804688 31.578125 C 32.734375 31.703125 32.648438 31.820312 32.554688 31.933594 C 32.382812 32.140625 32.179688 32.324219 31.953125 32.472656 C 31.933594 32.484375 31.925781 32.507812 31.933594 32.53125 C 31.945312 32.550781 31.972656 32.5625 31.996094 32.550781 C 32.253906 32.433594 32.484375 32.257812 32.683594 32.046875 C 32.78125 31.945312 32.871094 31.832031 32.949219 31.707031 C 32.945312 31.722656 32.949219 31.742188 32.945312 31.757812 C 32.933594 31.914062 32.898438 32.066406 32.859375 32.21875 C 32.777344 32.519531 32.632812 32.808594 32.449219 33.070312 C 32.4375 33.085938 32.4375 33.105469 32.453125 33.117188 C 32.46875 33.132812 32.492188 33.132812 32.507812 33.117188 C 32.738281 32.882812 32.914062 32.585938 33.023438 32.269531 C 33.074219 32.125 33.105469 31.972656 33.125 31.820312 C 33.207031 31.882812 33.253906 31.914062 33.253906 31.914062 C 33.253906 31.914062 33.253906 31.453125 33.25 30.683594 C 33.25 30.351562 33.25 29.960938 33.246094 29.527344 C 33.148438 29.644531 33.023438 29.695312 32.859375 29.644531 C 32.609375 29.566406 32.285156 29.3125 31.949219 28.953125 C 31.230469 28.183594 30.460938 26.933594 30.238281 25.851562 C 30.1875 25.601562 30.164062 25.359375 30.179688 25.136719 C 30.207031 24.699219 30.375 24.324219 30.738281 24.082031 C 31.523438 23.558594 32.132812 23.789062 32.570312 24.199219 C 32.507812 24.382812 32.464844 24.578125 32.4375 24.773438 C 32.414062 24.996094 32.410156 25.222656 32.433594 25.445312 C 32.457031 25.667969 32.5 25.886719 32.578125 26.097656 C 32.585938 26.117188 32.609375 26.128906 32.628906 26.125 C 32.652344 26.121094 32.671875 26.097656 32.667969 26.074219 C 32.636719 25.859375 32.613281 25.644531 32.605469 25.433594 C 32.601562 25.21875 32.609375 25.007812 32.632812 24.796875 C 32.652344 24.644531 32.679688 24.496094 32.710938 24.34375 C 32.941406 24.601562 33.109375 24.898438 33.21875 25.117188 C 33.21875 24.9375 33.214844 24.757812 33.214844 24.574219 C 33.207031 23.800781 34.367188 23.78125 34.292969 21.359375 C 34.269531 20.582031 34.917969 19.957031 35.664062 20.175781 C 38.183594 20.910156 42.15625 21.992188 46.175781 19.601562 C 46.203125 19.585938 46.234375 19.570312 46.261719 19.550781 C 46.261719 19.550781 46.128906 15.234375 42.609375 14.308594 C 39.761719 13.554688 37.023438 12.789062 34.394531 13.5625 C 33.859375 13.90625 30.941406 15.855469 29.359375 18.171875 C 28.835938 17.066406 29.066406 15.738281 29.957031 14.894531 C 30.488281 14.390625 31.171875 13.867188 31.984375 13.484375 C 32.1875 13.386719 32.402344 13.320312 32.617188 13.277344 C 31.117188 11.941406 28.65625 10.753906 26.171875 13.902344 C 22.183594 18.949219 26.105469 25.574219 25.171875 29.160156 C 25.082031 29.507812 24.980469 29.839844 24.871094 30.160156 C 24.589844 30.628906 24.28125 31.082031 23.933594 31.503906 C 23.574219 31.949219 23.179688 32.359375 22.757812 32.738281 C 22.332031 33.121094 21.878906 33.46875 21.402344 33.78125 C 21.386719 33.792969 21.378906 33.8125 21.390625 33.832031 C 21.398438 33.851562 21.421875 33.855469 21.441406 33.847656 C 21.945312 33.570312 22.421875 33.238281 22.867188 32.863281 C 23.308594 32.492188 23.714844 32.074219 24.085938 31.628906 C 24.242188 31.433594 24.390625 31.234375 24.53125 31.03125 C 23.507812 33.410156 22.117188 34.671875 22.117188 34.671875 C 22.117188 34.671875 28.234375 35.511719 30.171875 32.953125 Z M 43.800781 26.085938 C 43.800781 26.433594 43.996094 26.71875 44.234375 26.71875 C 44.472656 26.71875 44.671875 26.433594 44.671875 26.085938 C 44.671875 25.734375 44.472656 25.453125 44.234375 25.453125 C 43.996094 25.453125 43.800781 25.734375 43.800781 26.085938 Z M 38.339844 25.453125 C 38.582031 25.453125 38.777344 25.734375 38.777344 26.085938 C 38.777344 26.433594 38.582031 26.71875 38.339844 26.71875 C 38.101562 26.71875 37.90625 26.433594 37.90625 26.085938 C 37.90625 25.734375 38.101562 25.453125 38.339844 25.453125 " fill-opacity="1" fill-rule="nonzero"/></g></svg>