<svg xmlns="http://www.w3.org/2000/svg" xmlns:xlink="http://www.w3.org/1999/xlink" width="120" zoomAndPan="magnify" viewBox="0 0 90 89.999999" height="120" preserveAspectRatio="xMidYMid meet" version="1.0"><defs><clipPath id="b764fda9e9"><path d="M 1.390625 42 L 77 42 L 77 90 L 1.390625 90 Z M 1.390625 42 " clip-rule="nonzero"/></clipPath><clipPath id="61e053b60e"><path d="M 34 0 L 88.390625 0 L 88.390625 66 L 34 66 Z M 34 0 " clip-rule="nonzero"/></clipPath></defs><path fill="#e3e4e2" d="M 35.96875 4.5 L 86.84375 4.5 L 86.84375 64.5 L 35.96875 64.5 Z M 35.96875 4.5 " fill-opacity="1" fill-rule="nonzero"/><path fill="#0093b9" d="M 13.523438 57 L 64.398438 57 L 64.324219 55.261719 C 63.316406 48.679688 52.347656 43.5 38.960938 43.5 C 25.578125 43.5 14.609375 48.679688 13.601562 55.261719 Z M 13.523438 57 " fill-opacity="1" fill-rule="nonzero"/><path fill="#56c3c1" d="M 70.386719 88.5 L 70.386719 79.5 L 74.875 58.5 C 74.875 58.5 61.40625 52.5 38.960938 52.5 C 16.515625 52.5 3.046875 58.5 3.046875 58.5 L 7.539062 79.5 L 7.539062 88.5 Z M 70.386719 88.5 " fill-opacity="1" fill-rule="nonzero"/><path fill="#0093b9" d="M 47.941406 67.5 L 41.953125 67.5 L 41.953125 61.5 L 35.96875 61.5 L 35.96875 67.5 L 29.984375 67.5 L 29.984375 73.5 L 35.96875 73.5 L 35.96875 79.5 L 41.953125 79.5 L 41.953125 73.5 L 47.941406 73.5 Z M 47.941406 67.5 " fill-opacity="1" fill-rule="nonzero"/><path fill="#0093b9" d="M 50.933594 1.5 L 71.882812 1.5 C 72.277344 1.5 72.660156 1.574219 73.027344 1.726562 C 73.394531 1.878906 73.71875 2.097656 73.996094 2.378906 C 74.277344 2.660156 74.496094 2.984375 74.648438 3.351562 C 74.796875 3.71875 74.875 4.101562 74.875 4.5 C 74.875 4.898438 74.796875 5.28125 74.648438 5.648438 C 74.496094 6.015625 74.277344 6.339844 73.996094 6.621094 C 73.71875 6.902344 73.394531 7.121094 73.027344 7.273438 C 72.660156 7.425781 72.277344 7.5 71.882812 7.5 L 50.933594 7.5 C 50.535156 7.5 50.152344 7.425781 49.789062 7.273438 C 49.421875 7.121094 49.097656 6.902344 48.816406 6.621094 C 48.535156 6.339844 48.320312 6.015625 48.167969 5.648438 C 48.015625 5.28125 47.941406 4.898438 47.941406 4.5 C 47.941406 4.101562 48.015625 3.71875 48.167969 3.351562 C 48.320312 2.984375 48.535156 2.660156 48.816406 2.378906 C 49.097656 2.097656 49.421875 1.878906 49.789062 1.726562 C 50.152344 1.574219 50.535156 1.5 50.933594 1.5 Z M 50.933594 1.5 " fill-opacity="1" fill-rule="nonzero"/><g clip-path="url(#b764fda9e9)"><path fill="#000000" d="M 75.480469 57.128906 C 75.203125 57.003906 71.742188 55.492188 65.574219 54 C 63.578125 47.089844 52.460938 42 38.960938 42 C 25.460938 42 14.347656 47.089844 12.347656 54 C 6.179688 55.492188 2.71875 57.003906 2.441406 57.128906 C 2.117188 57.273438 1.875 57.503906 1.714844 57.820312 C 1.554688 58.136719 1.511719 58.46875 1.585938 58.8125 L 6.042969 79.660156 L 6.042969 88.5 C 6.042969 88.699219 6.078125 88.890625 6.15625 89.074219 C 6.230469 89.257812 6.339844 89.421875 6.480469 89.5625 C 6.621094 89.703125 6.78125 89.808594 6.964844 89.886719 C 7.148438 89.960938 7.339844 90 7.539062 90 L 70.386719 90 C 70.582031 90 70.773438 89.960938 70.957031 89.886719 C 71.140625 89.808594 71.304688 89.703125 71.445312 89.5625 C 71.582031 89.421875 71.691406 89.257812 71.769531 89.074219 C 71.84375 88.890625 71.882812 88.699219 71.882812 88.5 L 71.882812 79.660156 L 76.335938 58.8125 C 76.410156 58.46875 76.367188 58.136719 76.207031 57.820312 C 76.046875 57.503906 75.804688 57.273438 75.480469 57.128906 Z M 22.269531 48.273438 C 26.796875 46.164062 32.722656 45 38.960938 45 C 45.199219 45 51.125 46.164062 55.652344 48.273438 C 58.605469 49.648438 60.78125 51.371094 61.941406 53.199219 C 56.003906 52.003906 48.257812 51 38.960938 51 C 29.667969 51 21.917969 52.003906 15.980469 53.199219 C 17.144531 51.371094 19.320312 49.648438 22.269531 48.273438 Z M 69.175781 78 L 49.4375 78 L 49.4375 81 L 68.890625 81 L 68.890625 87 L 9.035156 87 L 9.035156 81 L 28.488281 81 L 28.488281 78 L 8.746094 78 L 4.777344 59.421875 C 7.480469 58.425781 10.234375 57.59375 13.035156 56.933594 C 23.066406 54.507812 32.667969 54 38.960938 54 C 50.359375 54 59.351562 55.597656 64.886719 56.933594 C 67.691406 57.59375 70.445312 58.425781 73.148438 59.421875 Z M 69.175781 78 " fill-opacity="1" fill-rule="nonzero"/></g><path fill="#000000" d="M 47.941406 66 L 43.449219 66 L 43.449219 61.5 C 43.449219 61.300781 43.414062 61.109375 43.335938 60.925781 C 43.261719 60.742188 43.152344 60.578125 43.011719 60.4375 C 42.871094 60.296875 42.710938 60.191406 42.527344 60.113281 C 42.34375 60.039062 42.152344 60 41.953125 60 L 35.96875 60 C 35.769531 60 35.578125 60.039062 35.394531 60.113281 C 35.210938 60.191406 35.050781 60.296875 34.910156 60.4375 C 34.769531 60.578125 34.664062 60.742188 34.585938 60.925781 C 34.511719 61.109375 34.472656 61.300781 34.472656 61.5 L 34.472656 66 L 29.984375 66 C 29.785156 66 29.59375 66.039062 29.410156 66.113281 C 29.226562 66.191406 29.066406 66.296875 28.925781 66.4375 C 28.785156 66.578125 28.675781 66.742188 28.601562 66.925781 C 28.523438 67.109375 28.488281 67.300781 28.488281 67.5 L 28.488281 73.5 C 28.488281 73.699219 28.523438 73.890625 28.601562 74.074219 C 28.675781 74.257812 28.785156 74.421875 28.925781 74.5625 C 29.066406 74.703125 29.226562 74.808594 29.410156 74.886719 C 29.59375 74.960938 29.785156 75 29.984375 75 L 34.472656 75 L 34.472656 79.5 C 34.472656 79.699219 34.511719 79.890625 34.585938 80.074219 C 34.664062 80.257812 34.769531 80.421875 34.910156 80.5625 C 35.050781 80.703125 35.210938 80.808594 35.394531 80.886719 C 35.578125 80.960938 35.769531 81 35.96875 81 L 41.953125 81 C 42.152344 81 42.34375 80.960938 42.527344 80.886719 C 42.710938 80.808594 42.871094 80.703125 43.011719 80.5625 C 43.152344 80.421875 43.261719 80.257812 43.335938 80.074219 C 43.414062 79.890625 43.449219 79.699219 43.449219 79.5 L 43.449219 75 L 47.941406 75 C 48.136719 75 48.328125 74.960938 48.511719 74.886719 C 48.695312 74.808594 48.859375 74.703125 48.996094 74.5625 C 49.136719 74.421875 49.246094 74.257812 49.320312 74.074219 C 49.398438 73.890625 49.4375 73.699219 49.4375 73.5 L 49.4375 67.5 C 49.4375 67.300781 49.398438 67.109375 49.320312 66.925781 C 49.246094 66.742188 49.136719 66.578125 48.996094 66.4375 C 48.859375 66.296875 48.695312 66.191406 48.511719 66.113281 C 48.328125 66.039062 48.136719 66 47.941406 66 Z M 46.445312 72 L 41.953125 72 C 41.753906 72 41.566406 72.039062 41.382812 72.113281 C 41.199219 72.191406 41.035156 72.296875 40.894531 72.4375 C 40.757812 72.578125 40.648438 72.742188 40.570312 72.925781 C 40.496094 73.109375 40.457031 73.300781 40.457031 73.5 L 40.457031 78 L 37.464844 78 L 37.464844 73.5 C 37.464844 73.300781 37.425781 73.109375 37.351562 72.925781 C 37.273438 72.742188 37.167969 72.578125 37.027344 72.4375 C 36.886719 72.296875 36.726562 72.191406 36.542969 72.113281 C 36.359375 72.039062 36.167969 72 35.96875 72 L 31.480469 72 L 31.480469 69 L 35.96875 69 C 36.167969 69 36.359375 68.960938 36.542969 68.886719 C 36.726562 68.808594 36.886719 68.703125 37.027344 68.5625 C 37.167969 68.421875 37.273438 68.257812 37.351562 68.074219 C 37.425781 67.890625 37.464844 67.699219 37.464844 67.5 L 37.464844 63 L 40.457031 63 L 40.457031 67.5 C 40.457031 67.699219 40.496094 67.890625 40.570312 68.074219 C 40.648438 68.257812 40.757812 68.421875 40.894531 68.5625 C 41.035156 68.703125 41.199219 68.808594 41.382812 68.886719 C 41.566406 68.960938 41.753906 69 41.953125 69 L 46.445312 69 Z M 46.445312 72 " fill-opacity="1" fill-rule="nonzero"/><g clip-path="url(#61e053b60e)"><path fill="#000000" d="M 86.84375 3 L 76.113281 3 C 75.957031 2.5625 75.742188 2.15625 75.460938 1.785156 C 75.179688 1.414062 74.851562 1.097656 74.472656 0.828125 C 74.09375 0.558594 73.683594 0.355469 73.242188 0.210938 C 72.796875 0.0703125 72.34375 0 71.882812 0 L 50.933594 0 C 50.46875 0 50.015625 0.0703125 49.574219 0.210938 C 49.132812 0.355469 48.722656 0.558594 48.34375 0.828125 C 47.964844 1.097656 47.632812 1.414062 47.355469 1.785156 C 47.074219 2.15625 46.855469 2.5625 46.699219 3 L 35.96875 3 C 35.769531 3 35.578125 3.039062 35.394531 3.113281 C 35.210938 3.191406 35.050781 3.296875 34.910156 3.4375 C 34.769531 3.578125 34.664062 3.742188 34.585938 3.925781 C 34.511719 4.109375 34.472656 4.300781 34.472656 4.5 L 34.472656 39 L 37.464844 39 L 37.464844 6 L 46.699219 6 C 46.855469 6.4375 47.074219 6.84375 47.355469 7.214844 C 47.632812 7.585938 47.964844 7.902344 48.34375 8.171875 C 48.722656 8.441406 49.132812 8.644531 49.574219 8.789062 C 50.015625 8.929688 50.46875 9 50.933594 9 L 71.882812 9 C 72.34375 9 72.796875 8.929688 73.242188 8.789062 C 73.683594 8.644531 74.09375 8.441406 74.472656 8.171875 C 74.851562 7.902344 75.179688 7.585938 75.460938 7.214844 C 75.742188 6.84375 75.957031 6.4375 76.113281 6 L 85.347656 6 L 85.347656 63 L 79.363281 63 L 79.363281 66 L 86.84375 66 C 87.042969 66 87.234375 65.960938 87.417969 65.886719 C 87.601562 65.808594 87.761719 65.703125 87.902344 65.5625 C 88.042969 65.421875 88.152344 65.257812 88.226562 65.074219 C 88.304688 64.890625 88.34375 64.699219 88.34375 64.5 L 88.34375 4.5 C 88.34375 4.300781 88.304688 4.109375 88.226562 3.925781 C 88.152344 3.742188 88.042969 3.578125 87.902344 3.4375 C 87.761719 3.296875 87.601562 3.191406 87.417969 3.113281 C 87.234375 3.039062 87.042969 3 86.84375 3 Z M 71.882812 6 L 50.933594 6 C 50.734375 6 50.542969 5.960938 50.359375 5.886719 C 50.175781 5.808594 50.015625 5.703125 49.875 5.5625 C 49.734375 5.421875 49.625 5.257812 49.550781 5.074219 C 49.472656 4.890625 49.4375 4.699219 49.4375 4.5 C 49.4375 4.300781 49.472656 4.109375 49.550781 3.925781 C 49.625 3.742188 49.734375 3.578125 49.875 3.4375 C 50.015625 3.296875 50.175781 3.191406 50.359375 3.113281 C 50.542969 3.039062 50.734375 3 50.933594 3 L 71.882812 3 C 72.082031 3 72.269531 3.039062 72.453125 3.113281 C 72.636719 3.191406 72.800781 3.296875 72.941406 3.4375 C 73.082031 3.578125 73.1875 3.742188 73.265625 3.925781 C 73.339844 4.109375 73.378906 4.300781 73.378906 4.5 C 73.378906 4.699219 73.339844 4.890625 73.265625 5.074219 C 73.1875 5.257812 73.082031 5.421875 72.941406 5.5625 C 72.800781 5.703125 72.636719 5.808594 72.453125 5.886719 C 72.269531 5.960938 72.082031 6 71.882812 6 Z M 71.882812 6 " fill-opacity="1" fill-rule="nonzero"/></g><path fill="#000000" d="M 44.945312 24 C 45.359375 24 45.714844 23.855469 46.003906 23.5625 L 54.984375 14.5625 L 52.867188 12.4375 L 44.945312 20.378906 L 43.011719 18.4375 L 40.894531 20.5625 L 43.890625 23.5625 C 44.179688 23.855469 44.535156 24 44.945312 24 Z M 44.945312 24 " fill-opacity="1" fill-rule="nonzero"/><path fill="#000000" d="M 43.890625 37.0625 C 44.027344 37.203125 44.191406 37.308594 44.375 37.386719 C 44.558594 37.460938 44.75 37.5 44.945312 37.5 C 45.144531 37.5 45.335938 37.460938 45.519531 37.386719 C 45.703125 37.308594 45.863281 37.203125 46.003906 37.0625 L 54.984375 28.0625 L 52.867188 25.9375 L 44.945312 33.878906 L 43.011719 31.9375 L 40.894531 34.0625 Z M 43.890625 37.0625 " fill-opacity="1" fill-rule="nonzero"/><path fill="#000000" d="M 58.414062 13.5 L 61.40625 13.5 L 61.40625 16.5 L 58.414062 16.5 Z M 58.414062 13.5 " fill-opacity="1" fill-rule="nonzero"/><path fill="#000000" d="M 64.398438 13.5 L 82.355469 13.5 L 82.355469 16.5 L 64.398438 16.5 Z M 64.398438 13.5 " fill-opacity="1" fill-rule="nonzero"/><path fill="#000000" d="M 58.414062 19.5 L 76.371094 19.5 L 76.371094 22.5 L 58.414062 22.5 Z M 58.414062 19.5 " fill-opacity="1" fill-rule="nonzero"/><path fill="#000000" d="M 58.414062 27 L 61.40625 27 L 61.40625 30 L 58.414062 30 Z M 58.414062 27 " fill-opacity="1" fill-rule="nonzero"/><path fill="#000000" d="M 64.398438 27 L 82.355469 27 L 82.355469 30 L 64.398438 30 Z M 64.398438 27 " fill-opacity="1" fill-rule="nonzero"/><path fill="#000000" d="M 58.414062 33 L 76.371094 33 L 76.371094 36 L 58.414062 36 Z M 58.414062 33 " fill-opacity="1" fill-rule="nonzero"/><path fill="#000000" d="M 58.414062 39 L 61.40625 39 L 61.40625 42 L 58.414062 42 Z M 58.414062 39 " fill-opacity="1" fill-rule="nonzero"/><path fill="#000000" d="M 64.398438 39 L 82.355469 39 L 82.355469 42 L 64.398438 42 Z M 64.398438 39 " fill-opacity="1" fill-rule="nonzero"/><path fill="#000000" d="M 67.394531 45 L 76.371094 45 L 76.371094 48 L 67.394531 48 Z M 67.394531 45 " fill-opacity="1" fill-rule="nonzero"/></svg>